<?xml version="1.0" standalone="no"?>
<!DOCTYPE svg PUBLIC "-//W3C//DTD SVG 20010904//EN"
 "http://www.w3.org/TR/2001/REC-SVG-20010904/DTD/svg10.dtd">
<svg version="1.0" xmlns="http://www.w3.org/2000/svg"
 width="1819.000000pt" height="1819.000000pt" viewBox="0 0 1819.000000 1819.000000"
 preserveAspectRatio="xMidYMid meet">
<defs>
<linearGradient id="grad1" x1="0%" y1="0%" x2="100%" y2="0%">
    <stop offset="0%" style="stop-color:#f5af19, #f12711;stop-opacity:1" />
    <stop offset="100%" style="stop-color:#000;stop-opacity:1" />
</linearGradient>
</defs>
<metadata>
Created by potrace 1.16, written by Peter Selinger 2001-2019
</metadata>
<g transform="translate(0.000000,1819.000000) scale(0.100000,-0.100000)"
fill="none" stroke="url(#grad1)" stroke-width="25px">
<path d="M10263 15179 c-6 -8 -22 -53 -34 -99 -41 -152 -28 -355 25 -399 10
-9 13 24 12 167 0 97 5 197 11 222 14 56 4 131 -14 109z"/>
<path d="M8844 14658 c-73 -11 -223 -78 -244 -108 -14 -20 -16 -37 -11 -90 7
-67 24 -96 142 -240 35 -41 35 -40 8 41 -12 35 -23 93 -26 129 -6 73 10 104
59 116 26 6 27 5 19 -23 -4 -15 -4 -62 1 -103 12 -100 7 -206 -9 -202 -19 3
-16 -12 17 -80 32 -66 58 -152 91 -303 11 -49 26 -119 35 -155 25 -109 43
-201 53 -277 17 -117 40 -203 62 -232 l22 -26 -6 50 c-3 28 -13 79 -21 115
-31 130 -41 187 -77 440 -26 186 -51 317 -65 339 -9 12 -28 62 -42 110 -21 68
-27 106 -27 186 1 112 10 140 70 196 19 18 35 39 35 46 0 16 4 17 -66 -6 -32
-10 -74 -21 -91 -25 -58 -10 -81 -33 -93 -89 -10 -50 -26 -87 -32 -77 -21 33
-38 77 -38 99 0 34 34 67 80 76 19 4 45 13 57 21 12 8 28 14 35 14 22 1 132
56 122 61 -5 3 -32 2 -60 -3z"/>
<path d="M8420 14582 c-19 -7 -34 -19 -95 -78 -48 -46 -58 -52 -123 -62 -90
-15 -95 -15 -89 3 5 10 -4 16 -29 21 -40 7 -132 -2 -154 -17 -13 -8 -12 -11 5
-24 11 -9 38 -20 60 -26 49 -14 243 -12 300 2 23 6 55 9 71 7 26 -3 29 -7 32
-41 2 -21 -2 -45 -9 -53 -9 -11 -8 -26 5 -69 22 -69 39 -84 60 -53 9 12 16 28
16 34 0 7 7 25 16 41 15 26 15 31 0 66 -19 47 -40 44 -44 -6 -2 -20 -8 -37
-14 -37 -10 0 -8 39 8 154 l7 49 -22 -22 c-11 -11 -30 -21 -40 -21 -11 0 -23
-4 -26 -10 -9 -14 -35 -12 -35 3 0 6 18 22 40 35 67 38 117 125 60 104z"/>
<path d="M9030 14571 c-63 -34 -145 -93 -152 -109 -9 -24 -9 -104 0 -120 5 -8
14 7 26 43 9 30 21 57 26 60 13 8 12 0 -4 -115 -16 -115 -12 -159 15 -157 13
1 19 9 19 27 0 52 77 253 126 331 37 60 14 76 -56 40z"/>
<path d="M9151 14513 c-40 -55 -74 -137 -95 -235 -9 -40 -21 -84 -26 -98 -22
-60 -30 -254 -18 -447 6 -106 15 -193 20 -193 4 0 8 11 8 24 0 13 7 40 15 60
9 20 13 41 10 46 -3 4 -10 98 -15 208 l-10 201 26 83 c23 74 48 119 87 160 24
25 61 239 41 238 -5 -1 -24 -21 -43 -47z"/>
<path d="M9610 14501 c-8 -17 -13 -162 -10 -331 1 -90 30 -68 57 44 38 157 2
377 -47 287z"/>
<path d="M9530 14475 c0 -28 -2 -28 -78 -25 -81 3 -134 -42 -81 -70 11 -6 23
-20 27 -31 7 -19 9 -18 42 6 19 14 38 25 42 25 16 0 7 -51 -18 -103 -19 -38
-25 -62 -20 -81 9 -37 28 -32 69 17 29 36 36 54 42 110 8 74 -1 177 -16 177
-5 0 -9 -11 -9 -25z"/>
<path d="M9285 14433 c-9 -27 -22 -69 -28 -95 -7 -25 -15 -50 -20 -54 -12 -12
-8 -34 6 -34 7 0 13 -9 13 -20 0 -11 -6 -20 -13 -20 -15 0 -18 -16 -5 -24 5
-3 10 -33 11 -68 2 -60 10 -135 45 -413 22 -169 39 -221 62 -184 12 20 22 147
14 186 -5 21 -15 70 -23 108 -9 39 -17 129 -18 200 -3 143 -10 175 -45 210
-34 34 -28 119 12 165 16 20 29 90 16 90 -5 0 -17 -21 -27 -47z"/>
<path d="M10330 14436 l10 -26 -220 0 c-120 0 -230 4 -244 10 -14 5 -26 7 -26
4 0 -2 16 -35 36 -73 27 -52 41 -69 57 -69 12 0 58 -4 102 -8 87 -8 132 -30
221 -108 45 -39 45 -39 74 -23 38 23 50 21 50 -7 0 -27 -24 -56 -46 -56 -19 0
-18 -56 2 -117 21 -63 31 -73 39 -37 3 16 20 81 36 145 37 137 36 154 -9 154
-26 0 -36 7 -53 34 -24 40 -20 58 18 63 33 4 43 37 18 58 -33 28 -8 40 40 18
14 -6 25 -17 25 -24 0 -17 62 -44 99 -44 15 0 31 -4 37 -9 5 -5 41 -11 79 -14
166 -12 305 -55 389 -118 28 -22 54 -39 58 -39 3 0 11 -15 18 -34 6 -18 22
-44 35 -56 14 -13 25 -32 25 -42 0 -16 -3 -17 -21 -7 -20 10 -21 9 -15 -12 5
-13 13 -50 20 -83 10 -51 13 -56 25 -42 28 33 43 20 39 -35 l-3 -50 28 31 c31
35 33 43 11 64 -16 16 -39 130 -29 146 13 21 -54 136 -110 190 -114 108 -350
233 -372 197 -12 -20 -338 8 -431 38 -21 7 -22 6 -12 -19z m-42 -103 c36 -18
37 -20 40 -80 4 -78 -11 -82 -56 -18 -19 27 -39 45 -51 45 -11 0 -23 5 -26 10
-3 6 -19 10 -35 10 -16 0 -32 5 -36 11 -4 8 -36 10 -96 7 -91 -5 -114 1 -75
20 31 16 67 19 190 16 80 -3 119 -8 145 -21z"/>
<path d="M7584 14436 c-15 -12 -17 -17 -6 -27 17 -18 15 -24 -15 -45 -54 -35
-407 -77 -439 -52 -33 25 -180 -31 -213 -81 l-15 -24 39 7 c22 4 54 14 70 21
88 41 149 50 188 28 13 -8 -23 -57 -65 -87 -35 -25 -50 -29 -124 -32 -46 -2
-89 -6 -94 -9 -6 -4 -58 10 -116 30 -79 27 -115 35 -140 30 -63 -11 -43 -25
61 -40 22 -4 65 -15 96 -27 49 -17 76 -19 189 -16 l132 3 56 63 c75 82 163
127 235 118 26 -4 73 -2 105 4 31 5 75 13 97 16 37 6 38 7 18 17 -13 5 -23 14
-23 19 0 14 86 9 116 -7 16 -8 48 -15 71 -15 23 0 45 -4 48 -10 3 -5 15 -10
26 -10 25 0 24 -9 -7 -41 -42 -44 -44 -149 -4 -149 11 0 30 57 30 86 0 13 4
24 8 24 13 0 41 -65 48 -111 9 -57 26 -100 51 -134 28 -37 28 -30 8 107 -22
157 -35 205 -59 216 -11 6 -15 11 -8 11 6 1 12 7 12 15 0 23 -19 30 -110 42
-47 7 -72 12 -57 13 16 1 26 5 22 11 -3 6 -44 10 -89 10 -75 0 -84 2 -89 20
-6 24 -26 26 -53 6z"/>
<path d="M11105 14440 c-13 -21 38 -100 86 -132 36 -25 56 -50 84 -106 21 -39
42 -89 48 -110 12 -44 15 -150 4 -172 -4 -9 -1 -24 6 -35 14 -18 16 -16 42 25
24 38 27 51 22 97 -3 29 -17 74 -30 100 -14 27 -33 75 -43 107 -10 33 -33 78
-53 102 -20 24 -45 55 -56 69 -21 27 -75 65 -93 65 -6 0 -14 -5 -17 -10z"/>
<path d="M11283 14400 c-27 -11 -27 -11 -11 -44 11 -26 40 -42 57 -31 14 8 27
-22 35 -80 16 -122 23 -152 40 -177 29 -44 37 -34 30 37 -5 46 -3 65 5 65 6 0
11 -12 11 -28 0 -15 6 -37 14 -48 8 -12 18 -45 21 -75 9 -80 26 -140 39 -136
6 2 12 36 14 82 3 84 4 81 -101 322 -50 116 -84 141 -154 113z"/>
<path d="M8135 14340 c-4 -6 2 -21 13 -33 11 -12 33 -51 48 -87 27 -61 29 -74
29 -195 0 -105 3 -136 18 -162 22 -40 21 -43 -3 -43 -30 0 -24 -15 22 -54 49
-42 83 -49 72 -13 -3 12 -12 33 -19 47 -27 54 -34 100 -23 153 10 46 8 66 -16
162 -43 179 -48 193 -65 209 -23 21 -67 30 -76 16z"/>
<path d="M11540 14342 c0 -20 31 -41 68 -47 66 -12 74 -15 62 -30 -12 -15 2
-29 40 -39 47 -13 119 -49 124 -62 7 -17 -8 -18 -51 -2 -25 9 -36 9 -45 0 -16
-16 0 -32 56 -61 75 -37 118 -110 81 -137 -15 -11 -17 -21 -10 -71 10 -74 11
-161 2 -238 -4 -33 -4 -53 -1 -45 4 8 12 18 19 22 8 5 16 44 20 95 4 48 12 99
17 113 9 24 10 24 24 6 9 -13 14 -46 14 -97 0 -69 2 -77 18 -73 14 4 22 -11
44 -83 38 -122 60 -232 53 -265 -7 -28 -36 -53 -49 -41 -3 3 -6 -6 -6 -20 0
-29 -26 -92 -49 -119 -12 -16 -12 -18 4 -18 10 0 43 26 74 58 53 54 56 60 60
117 9 131 -7 363 -27 402 -5 10 -15 43 -22 73 -7 30 -19 64 -26 75 -8 11 -14
27 -14 37 0 10 -15 25 -36 36 -49 25 -32 33 42 19 71 -14 104 -37 134 -97 20
-40 24 -67 32 -260 9 -193 12 -216 29 -229 27 -19 24 -69 -6 -113 -32 -47 -31
-53 1 -31 31 20 64 91 64 137 0 18 5 37 11 43 7 7 14 73 17 173 3 88 9 163 13
166 14 8 10 59 -7 95 l-15 34 5 -61 c5 -51 2 -64 -13 -78 -18 -16 -19 -15 -25
38 -4 31 -12 58 -17 61 -5 4 -9 13 -9 22 0 29 -44 104 -72 125 -17 11 -52 22
-86 25 -80 7 -113 32 -142 107 -28 72 -49 95 -112 129 -34 18 -43 27 -32 31
27 10 -1 33 -69 54 -76 24 -187 38 -187 24z"/>
<path d="M8076 14284 c-3 -9 -6 -25 -6 -37 0 -35 52 -227 62 -227 41 0 26 221
-19 265 -19 19 -29 19 -37 -1z"/>
<path d="M8520 14279 c-9 -17 -7 -26 15 -55 14 -19 30 -34 35 -34 15 0 70
-102 70 -130 1 -23 12 -47 66 -146 12 -22 29 -70 37 -109 19 -85 45 -174 46
-158 1 7 7 10 15 7 16 -6 25 -59 36 -225 5 -89 14 -144 30 -187 22 -60 44 -91
57 -79 9 10 -16 293 -34 372 -32 147 -96 359 -135 444 -96 211 -140 280 -197
310 -27 15 -29 14 -41 -10z"/>
<path d="M11515 14228 c9 -43 40 -92 69 -112 14 -8 34 -41 47 -76 13 -33 30
-60 38 -60 16 0 11 38 -13 93 -14 31 -14 37 -2 37 8 0 27 -26 42 -57 23 -49
26 -69 25 -142 0 -66 3 -89 16 -103 9 -10 19 -18 23 -18 3 0 12 29 19 64 16
80 8 133 -30 205 -16 30 -29 60 -29 67 0 7 -24 25 -52 38 -61 29 -88 49 -88
64 0 13 -32 32 -55 32 -13 0 -15 -6 -10 -32z"/>
<path d="M10558 14243 c-15 -4 -18 -17 -18 -86 0 -45 5 -100 11 -122 6 -22 17
-74 24 -115 30 -169 39 -200 57 -200 34 0 37 126 4 220 -17 49 -22 150 -7 150
5 0 19 16 31 35 33 53 56 47 139 -36 71 -71 71 -72 92 -53 15 14 34 19 68 17
210 -7 197 52 -21 101 -27 6 -38 -6 -18 -19 6 -3 10 -13 10 -21 0 -20 -37 -17
-90 7 -43 19 -44 21 -26 35 11 8 30 14 41 14 23 0 62 35 48 43 -26 16 -106 17
-162 3 -80 -21 -81 -21 -81 9 0 23 -4 25 -42 24 -24 -1 -51 -3 -60 -6z"/>
<path d="M7286 14214 c-35 -24 -66 -69 -66 -97 0 -8 24 8 53 35 33 31 59 47
72 45 11 -1 19 -8 18 -14 -1 -6 11 -16 28 -22 16 -5 49 -26 73 -46 36 -29 45
-33 50 -20 3 9 -1 29 -9 45 -8 16 -15 36 -15 44 0 8 -13 24 -29 35 -41 30
-127 27 -175 -5z"/>
<path d="M9537 14184 c-3 -6 -11 -62 -17 -125 -7 -68 -17 -123 -26 -137 -21
-32 -40 -141 -54 -312 -7 -80 -18 -158 -25 -175 -7 -16 -13 -50 -14 -74 -1
-24 -9 -57 -16 -72 -20 -37 -19 -48 3 -42 28 7 51 60 66 153 8 47 21 105 29
130 16 47 57 254 78 397 10 68 10 98 -2 175 -8 51 -18 88 -22 82z"/>
<path d="M10065 14162 c-40 -18 -40 -19 -13 -25 30 -8 68 -69 98 -157 14 -41
20 -51 26 -37 3 10 4 38 1 62 -6 39 -3 48 22 76 35 38 31 55 -17 75 -58 24
-75 25 -117 6z"/>
<path d="M9203 14093 c-4 -16 -7 -118 -7 -228 0 -154 4 -221 18 -292 10 -51
22 -93 27 -93 15 0 10 89 -9 180 -13 65 -16 124 -15 250 2 91 5 175 8 188 8
32 -13 27 -22 -5z"/>
<path d="M8506 14084 c-21 -54 7 -330 40 -401 22 -48 38 -42 31 10 -3 23 -11
94 -17 157 -20 213 -36 282 -54 234z"/>
<path d="M9940 14090 c0 -5 18 -47 39 -92 22 -46 56 -137 78 -203 24 -76 48
-130 65 -148 14 -16 29 -44 32 -61 3 -18 19 -47 35 -66 25 -30 30 -33 36 -17
10 25 38 21 68 -9 24 -24 32 -49 43 -139 5 -39 6 -40 14 -13 4 15 5 54 1 87
-8 67 -16 76 -118 138 -35 21 -63 43 -63 49 0 7 -6 14 -14 17 -7 3 -26 52 -41
109 -31 112 -47 152 -100 243 -19 33 -40 72 -46 88 -11 26 -29 37 -29 17z"/>
<path d="M9094 14076 c-17 -44 17 -420 39 -443 3 -2 8 29 12 70 7 74 3 167
-12 299 -9 72 -27 106 -39 74z"/>
<path d="M9694 14078 c-17 -26 -75 -211 -84 -266 -5 -32 -18 -118 -30 -192
-11 -74 -25 -148 -30 -164 -6 -16 -10 -81 -10 -145 l0 -116 20 25 c16 20 20
41 20 111 0 82 2 90 35 139 41 60 65 162 65 272 0 40 6 116 14 168 18 121 22
167 14 175 -3 4 -10 0 -14 -7z"/>
<path d="M7130 14072 c-8 -2 -26 -15 -40 -28 -14 -12 -37 -27 -52 -33 -26 -10
-28 -15 -28 -65 0 -52 2 -57 31 -71 41 -22 57 -14 64 32 14 82 17 95 26 86 4
-4 11 -35 14 -68 10 -104 15 -125 35 -143 14 -13 20 -35 23 -87 2 -39 1 -81
-3 -95 -10 -34 -23 -186 -16 -179 18 17 58 192 59 254 1 67 -25 165 -43 165
-14 0 -33 90 -27 127 7 46 -20 112 -43 105z"/>
<path d="M7421 14023 c5 -16 24 -45 40 -66 41 -51 45 -67 69 -272 26 -232 46
-325 70 -325 17 0 6 208 -23 401 -16 105 -53 191 -112 255 -39 42 -59 45 -44
7z"/>
<path d="M9870 14027 c0 -23 38 -181 53 -222 14 -38 54 -136 83 -202 8 -17 14
-38 14 -47 0 -9 7 -43 17 -76 13 -48 19 -58 30 -49 20 18 16 60 -17 151 -16
46 -34 101 -39 123 -21 88 -33 131 -41 150 -4 11 -16 43 -26 70 -27 78 -74
142 -74 102z"/>
<path d="M6744 13995 c-4 -10 -1 -21 7 -26 8 -5 19 -13 25 -17 21 -15 52 -69
64 -111 6 -24 16 -51 21 -60 5 -9 13 -28 19 -43 5 -16 14 -28 20 -28 11 0 12
5 14 106 1 44 6 77 15 88 34 41 -30 93 -125 103 -45 5 -55 3 -60 -12z"/>
<path d="M7565 13989 c4 -12 32 -60 63 -108 l56 -86 -3 -211 c-2 -144 1 -225
10 -255 l12 -44 8 30 c5 17 13 95 19 175 5 80 13 185 16 233 6 79 5 90 -13
110 -28 30 -45 65 -38 77 13 20 126 -2 161 -31 8 -7 8 2 -1 28 -16 49 -39 59
-154 72 -52 5 -99 15 -105 21 -19 19 -38 12 -31 -11z"/>
<path d="M5667 13976 c-4 -9 -1 -53 5 -98 13 -96 4 -198 -17 -198 -27 0 -36
-93 -17 -178 18 -78 182 -268 241 -277 19 -3 48 -15 65 -27 53 -36 146 -130
183 -186 19 -29 44 -57 54 -63 17 -8 19 -6 19 21 0 17 -6 45 -14 63 -30 71
-184 203 -312 270 -156 80 -212 167 -204 317 3 43 3 42 10 -18 6 -56 29 -102
50 -102 4 0 7 36 6 79 -1 86 9 109 38 88 11 -8 19 -32 23 -72 10 -106 31 -129
198 -213 117 -59 141 -67 151 -51 9 16 -27 42 -145 104 l-95 51 -47 89 c-51
98 -69 165 -46 165 8 0 21 -8 29 -17 19 -22 80 -129 113 -200 28 -60 27 -59
85 -67 42 -6 43 -6 18 6 -31 14 -171 226 -161 242 4 5 26 -11 49 -37 24 -26
45 -43 49 -37 3 5 -6 34 -22 62 -24 46 -33 53 -68 60 -64 13 -116 39 -113 57
5 27 59 25 98 -3 19 -14 44 -30 55 -35 27 -12 135 -130 135 -147 0 -8 5 -14
10 -14 6 0 10 23 10 50 0 60 -21 85 -106 125 -30 14 -54 32 -54 39 0 24 -68
76 -99 76 -16 0 -43 3 -61 6 l-32 7 5 -39 c2 -21 8 -49 12 -61 4 -13 3 -23 -1
-23 -5 0 -18 28 -28 63 -11 34 -23 66 -28 72 -4 5 -8 17 -8 26 0 25 -26 44
-33 25z"/>
<path d="M8390 13971 c-9 -18 -10 -45 -5 -100 4 -42 8 -110 9 -151 2 -62 7
-83 30 -125 16 -27 38 -67 49 -87 11 -21 33 -50 49 -65 l28 -27 0 25 c0 13
-16 69 -36 124 -44 122 -70 220 -79 300 -5 33 -13 76 -20 95 l-12 35 -13 -24z"/>
<path d="M6465 13970 c-16 -3 -45 -13 -62 -23 -18 -9 -54 -20 -80 -23 -70 -8
-134 -25 -168 -46 -16 -10 -46 -18 -66 -18 -20 0 -42 -7 -49 -15 -10 -12 -6
-18 22 -35 53 -32 97 -41 122 -25 11 8 46 17 76 21 36 5 68 17 94 36 21 15 47
28 56 28 27 0 43 -27 37 -58 -6 -29 28 -142 68 -229 41 -88 48 -34 10 77 -14
40 -25 81 -25 89 1 24 90 -79 97 -111 5 -24 23 -41 23 -22 0 16 -81 186 -106
223 -23 35 -19 61 10 61 15 0 68 -82 97 -150 12 -30 31 -66 41 -79 l18 -24 0
47 c0 85 -35 182 -74 208 -6 4 -20 14 -31 22 -19 14 -17 15 28 16 38 0 52 -5
70 -24 42 -46 158 -347 189 -491 6 -27 14 -54 18 -60 20 -27 44 -209 45 -355
1 -85 5 -186 9 -225 8 -82 -3 -113 -29 -80 -31 39 -73 158 -114 328 -10 37
-21 68 -27 67 -5 0 -9 -40 -8 -90 1 -86 3 -95 44 -178 24 -48 56 -103 71 -122
38 -50 94 -178 106 -242 9 -47 23 -31 22 23 -2 33 2 54 11 59 13 8 11 34 -9
130 -6 25 -10 162 -11 305 0 143 -5 276 -10 295 -19 71 -81 247 -106 300 -15
30 -47 109 -71 175 -25 66 -58 137 -75 158 -16 21 -27 45 -24 52 4 13 -12 14
-102 12 -59 -1 -120 -4 -137 -7z"/>
<path d="M7286 13954 c-10 -26 -7 -67 9 -120 8 -27 19 -98 25 -159 9 -96 7
-128 -11 -245 -11 -74 -23 -211 -26 -305 -5 -166 -4 -171 20 -215 13 -25 29
-55 35 -65 5 -11 31 -64 56 -119 91 -193 111 -201 112 -43 0 61 1 141 1 177 1
36 1 101 1 145 0 44 3 129 7 190 8 113 -4 236 -30 325 -24 79 -45 216 -49 310
-2 79 -6 94 -25 113 l-23 22 6 -50 c3 -27 9 -104 12 -170 5 -99 4 -118 -7
-107 -17 16 -34 71 -59 187 -18 88 -35 145 -44 145 -2 0 -7 -7 -10 -16z m186
-643 c7 -182 6 -222 -7 -268 -9 -29 -18 -89 -22 -133 -5 -67 -8 -77 -18 -63
-10 13 -16 15 -27 6 -26 -22 -49 11 -79 116 -22 76 -25 154 -6 169 10 9 13 4
15 -21 2 -17 9 -38 17 -47 8 -9 15 -22 15 -28 0 -7 5 -12 10 -12 18 0 11 50
-15 100 -19 38 -25 65 -25 114 0 66 7 80 33 70 20 -7 26 -32 33 -151 l7 -102
20 25 c18 24 19 36 13 262 -6 226 -6 236 10 207 14 -24 19 -73 26 -244z"/>
<path d="M7927 13923 c4 -10 15 -24 25 -31 36 -26 208 -257 208 -279 0 -12 49
-63 61 -63 6 0 8 7 5 16 -14 37 -18 64 -8 64 17 0 77 -108 106 -189 15 -41 31
-81 36 -90 8 -14 9 -14 10 2 0 10 8 17 19 17 49 0 52 8 26 76 -31 81 -82 160
-143 216 -139 130 -190 175 -222 192 -19 10 -54 34 -77 53 -47 38 -55 40 -46
16z"/>
<path d="M9777 13884 c-4 -16 -9 -78 -12 -139 -4 -60 -14 -144 -22 -185 -9
-41 -17 -113 -20 -160 -2 -47 -6 -101 -9 -121 -5 -28 3 -56 30 -120 26 -60 36
-97 36 -136 0 -29 5 -53 10 -53 12 0 12 30 0 125 -12 96 -39 283 -46 322 -8
42 2 83 21 83 8 0 15 -7 15 -15 0 -8 4 -15 8 -15 4 0 14 40 21 90 16 106 10
270 -12 319 l-15 34 -5 -29z"/>
<path d="M7810 13747 c0 -50 -5 -121 -10 -157 -7 -43 -6 -90 0 -140 16 -110
42 -230 51 -230 5 0 13 9 19 20 12 22 0 161 -21 265 -6 28 -9 73 -7 100 l3 50
18 -57 c15 -48 21 -58 40 -58 19 0 26 10 41 54 12 34 16 64 11 84 -8 38 -71
117 -114 143 l-31 19 0 -93z"/>
<path d="M7141 13684 c-20 -54 -41 -174 -48 -267 -7 -102 30 -237 50 -183 3 7
0 59 -6 113 -9 85 -8 117 7 214 10 63 16 125 15 138 -4 22 -6 20 -18 -15z"/>
<path d="M5513 13698 c-19 -24 -33 -81 -34 -137 -1 -31 -4 -81 -8 -111 l-7
-55 -28 60 c-15 33 -36 79 -47 102 -27 61 -44 67 -35 12 4 -24 10 -55 13 -68
5 -22 4 -23 -23 -17 -16 4 -36 14 -45 22 -9 8 -33 18 -54 21 -36 6 -37 5 -26
-16 7 -12 33 -34 59 -50 26 -16 64 -39 85 -52 20 -13 37 -29 37 -36 0 -8 22
-36 49 -63 35 -35 52 -45 60 -37 20 20 199 -168 201 -210 0 -7 14 -29 32 -48
24 -28 36 -35 54 -31 20 5 28 -1 50 -36 74 -117 143 -184 128 -123 -9 37 0 31
39 -27 19 -29 86 -105 149 -168 62 -63 137 -151 167 -195 68 -100 115 -151
164 -177 22 -10 41 -18 43 -16 2 2 -15 26 -36 53 -70 89 -96 129 -145 220 -47
88 -130 210 -160 235 -27 22 -18 -11 20 -74 20 -32 34 -60 32 -63 -6 -6 -71
65 -145 157 -33 42 -82 95 -109 119 -26 23 -52 45 -56 49 -4 4 -23 25 -42 47
-22 26 -37 36 -42 29 -13 -18 -42 -1 -66 38 -12 20 -68 84 -124 142 -87 90
-102 111 -108 148 -4 24 -12 52 -17 62 -6 11 -10 82 -9 163 1 78 0 143 -2 143
-3 0 -9 -6 -14 -12z"/>
<path d="M12341 13511 l1 -189 -41 -83 c-46 -93 -51 -124 -21 -132 16 -4 20
-14 20 -49 0 -67 9 -88 36 -88 13 0 24 -4 24 -10 0 -23 29 -7 39 21 16 47 14
56 -20 89 -30 28 -31 31 -27 102 2 40 12 91 22 113 18 39 19 39 26 15 5 -14 9
-74 10 -135 1 -77 4 -103 10 -87 14 34 30 26 30 -15 1 -32 2 -35 11 -19 8 13
8 34 0 74 -6 30 -11 98 -11 149 0 92 -11 140 -31 128 -5 -4 -9 27 -9 78 0 71
-3 87 -20 102 -12 11 -22 37 -26 67 -14 102 -23 51 -23 -131z"/>
<path d="M9888 13678 c-2 -7 -3 -70 -3 -140 1 -98 5 -131 16 -145 9 -10 26
-35 38 -55 25 -42 48 -52 36 -15 -4 12 -11 67 -15 122 -11 150 -35 245 -60
245 -4 0 -10 -6 -12 -12z"/>
<path d="M8080 13565 c0 -35 70 -284 108 -383 11 -29 41 -83 66 -120 57 -84
91 -192 82 -260 -4 -26 -9 -73 -12 -106 -5 -48 -9 -59 -27 -64 -20 -5 -20 -6
-1 -13 71 -28 99 13 97 146 0 71 -6 105 -28 165 -15 41 -49 138 -75 215 -74
217 -172 425 -201 425 -5 0 -9 -2 -9 -5z"/>
<path d="M12443 13538 c3 -18 9 -80 13 -138 3 -58 11 -113 16 -123 5 -10 13
-65 18 -121 4 -57 12 -111 17 -120 8 -15 11 -13 23 9 12 22 12 31 0 63 -10 27
-14 91 -15 235 0 185 -1 200 -19 213 -11 8 -28 14 -39 14 -16 0 -18 -5 -14
-32z"/>
<path d="M6360 13484 c0 -30 14 -63 56 -137 66 -116 77 -162 94 -402 11 -161
14 -178 61 -317 62 -189 71 -228 54 -234 -30 -12 -57 17 -195 213 -37 52 -70
73 -70 44 0 -25 71 -149 129 -225 28 -38 38 -57 27 -53 -29 11 -39 -3 -15 -24
21 -18 21 -19 3 -20 -11 0 -14 -3 -6 -6 7 -3 23 2 36 10 22 15 25 14 52 -15
16 -16 48 -41 72 -55 71 -42 54 -53 -83 -53 -71 0 -108 5 -150 21 -31 12 -59
18 -62 15 -11 -11 52 -100 83 -118 27 -16 46 -17 209 -8 174 9 283 24 353 50
33 12 177 10 330 -6 34 -4 62 -2 62 2 0 5 -22 17 -49 27 -40 14 -53 25 -70 58
-12 22 -21 46 -19 52 1 7 -1 46 -5 87 -9 90 -60 261 -65 217 -2 -15 4 -57 13
-93 25 -99 28 -154 12 -199 -11 -31 -19 -39 -35 -37 -11 2 -23 -2 -27 -8 -10
-16 -47 -12 -89 11 -27 14 -42 17 -49 10 -6 -6 -28 -11 -48 -11 -45 0 -70 28
-113 130 -16 36 -35 72 -43 80 -26 26 -7 -65 33 -155 20 -44 38 -88 41 -97 12
-40 -75 -5 -98 39 -7 14 -21 29 -31 34 -24 13 -40 45 -81 169 -71 213 -78 245
-88 370 -22 291 -30 368 -42 423 -12 56 -27 67 -27 20 0 -55 -36 -16 -89 101
-23 49 -48 98 -56 109 -14 20 -15 19 -15 -19z"/>
<path d="M6607 13459 c-15 -9 -18 -18 -12 -45 13 -74 27 -237 34 -419 8 -177
11 -199 45 -320 21 -71 44 -143 52 -160 13 -25 14 -25 9 -5 -4 14 -9 41 -12
60 -14 115 -25 175 -32 184 -17 23 -31 191 -31 384 0 180 -14 333 -30 332 -3
0 -13 -5 -23 -11z"/>
<path d="M5190 13440 c0 -12 15 -29 40 -45 42 -26 140 -118 140 -130 0 -9 55
-81 96 -125 31 -34 144 -269 144 -300 0 -9 -17 3 -40 28 -22 24 -40 45 -40 48
0 5 -52 86 -60 94 -3 3 -30 54 -60 115 -59 119 -101 175 -131 175 -26 0 -24
-10 14 -61 38 -52 62 -101 75 -151 9 -33 75 -131 201 -297 46 -60 72 -102 109
-176 22 -44 96 -144 106 -145 4 0 5 10 1 23 -4 12 -10 42 -14 67 -4 25 -19 64
-34 87 -15 24 -27 54 -27 69 0 14 -18 59 -40 101 -24 44 -55 126 -74 197 -33
121 -56 179 -76 191 -6 4 -10 -8 -10 -29 0 -20 -3 -36 -7 -36 -5 0 -24 28 -43
62 -19 34 -50 79 -68 101 -23 28 -30 43 -22 51 18 18 12 24 -58 66 -76 45
-122 52 -122 20z"/>
<path d="M6702 13225 c0 -232 6 -311 20 -273 14 35 20 284 9 358 -25 170 -29
158 -29 -85z"/>
<path d="M10220 13390 c-8 -5 -18 -6 -22 -4 -11 7 -28 -41 -28 -78 0 -17 -7
-36 -17 -43 -15 -11 -15 -18 -3 -69 8 -33 19 -56 26 -56 18 0 44 52 44 88 0
15 5 33 11 39 5 5 9 37 7 71 -2 51 -6 60 -18 52z"/>
<path d="M8490 13263 c1 -53 30 -224 45 -263 38 -102 47 -139 56 -220 10 -95
38 -149 97 -183 43 -25 40 -9 -9 47 l-41 46 6 68 c7 65 6 69 -38 157 -45 88
-59 156 -36 170 23 14 3 90 -43 161 -24 37 -37 43 -37 17z"/>
<path d="M7046 13012 c-7 -192 -6 -212 12 -257 11 -28 23 -75 27 -105 11 -85
60 -229 73 -215 2 2 -5 41 -16 87 -11 46 -23 109 -26 141 -15 149 -18 167 -27
162 -5 -4 -9 12 -9 35 0 23 4 39 8 36 5 -3 13 26 20 64 14 80 7 134 -30 233
-6 15 -14 27 -18 27 -4 0 -10 -94 -14 -208z"/>
<path d="M7703 13053 c7 -170 23 -216 94 -282 37 -34 62 -71 96 -143 49 -101
77 -129 129 -127 13 1 43 -6 67 -15 78 -29 171 -16 171 24 0 30 30 37 165 39
65 1 123 4 127 7 14 9 -3 31 -41 52 -33 19 -40 20 -57 7 -15 -11 -17 -16 -6
-26 18 -19 15 -29 -8 -29 -11 0 -20 7 -20 15 0 19 -53 20 -69 1 -12 -14 -57
-26 -121 -31 -19 -2 -73 -8 -119 -14 -95 -12 -105 -8 -128 47 -13 31 -102 160
-130 190 -44 46 -85 166 -123 365 -6 31 -16 57 -22 57 -8 0 -9 -42 -5 -137z"/>
<path d="M8363 13156 c8 -47 103 -349 125 -396 l17 -35 3 49 c2 37 -6 74 -31
145 -19 53 -40 117 -46 144 -14 61 -42 119 -60 125 -11 4 -13 -3 -8 -32z"/>
<path d="M12084 13110 c-85 -87 -114 -102 -143 -76 -17 15 -26 16 -82 5 -35
-6 -75 -15 -89 -19 -14 -4 -55 -2 -93 3 -74 11 -89 6 -63 -22 25 -28 74 -35
105 -14 21 14 55 17 206 17 l180 1 5 45 c7 51 19 77 49 104 22 20 27 36 13 36
-5 0 -44 -36 -88 -80z"/>
<path d="M5130 13144 c0 -24 72 -131 130 -193 l25 -26 5 29 5 29 48 -41 c85
-74 110 -75 67 -5 -13 22 -32 36 -60 44 -31 10 -52 27 -89 73 -77 97 -96 116
-114 116 -12 0 -17 -8 -17 -26z"/>
<path d="M12579 13130 c-4 -8 -3 -25 2 -37 8 -21 12 -22 56 -16 68 10 112 10
115 -2 3 -10 -87 -63 -110 -64 -21 -2 -206 -82 -221 -96 -26 -25 30 -28 105
-7 46 13 116 22 209 26 125 6 144 9 175 31 54 36 130 74 130 65 0 -5 -24 -33
-52 -63 -55 -55 -147 -107 -192 -107 -14 0 -28 -5 -32 -11 -4 -7 -41 -10 -103
-9 -124 4 -161 2 -161 -8 0 -4 40 -20 89 -36 73 -23 100 -27 143 -21 53 6 162
52 207 87 13 10 28 18 34 18 19 0 -37 -51 -91 -83 -61 -37 -65 -60 -11 -65 37
-3 39 -2 208 135 59 47 146 126 149 135 2 4 8 8 14 8 6 0 35 21 65 47 46 38
52 48 39 55 -35 19 -82 -12 -197 -127 -62 -63 -121 -115 -131 -115 -10 0 -18
3 -18 6 0 8 89 110 133 151 23 23 37 45 37 61 0 21 -3 23 -27 17 -14 -3 -38
-15 -51 -26 -30 -23 -48 -24 -60 -2 -19 33 -158 62 -303 62 -86 1 -108 -2
-113 -14 -7 -20 -24 -19 -28 3 -3 14 -5 14 -9 2z m366 -64 c18 -13 18 -15 -11
-41 -43 -41 -85 -55 -165 -55 l-71 0 14 23 c17 25 61 49 128 70 60 19 82 20
105 3z"/>
<path d="M10787 13054 c-12 -12 4 -24 34 -24 16 0 29 -3 29 -7 0 -10 75 -40
120 -48 45 -8 90 -25 90 -34 0 -4 -13 -20 -29 -35 l-30 -28 -47 16 c-58 19
-134 22 -134 4 0 -23 14 -35 63 -53 42 -16 53 -16 90 -5 23 8 49 19 57 25 8 6
32 19 53 29 37 17 51 46 22 46 -8 0 -15 4 -15 9 0 17 -74 81 -105 90 -39 12
-190 23 -198 15z"/>
<path d="M10415 12990 c-16 -4 -51 -8 -77 -9 -43 -1 -46 -3 -41 -23 3 -13 13
-29 21 -35 20 -16 64 -17 80 -1 20 20 148 -8 237 -54 108 -55 129 -62 122 -44
-3 7 0 19 6 25 17 17 -18 41 -138 95 -106 48 -161 60 -210 46z"/>
<path d="M5220 12912 c0 -4 21 -28 46 -52 25 -25 57 -62 70 -82 13 -21 37 -44
54 -53 19 -10 39 -35 56 -70 15 -30 45 -72 68 -94 97 -94 211 -194 249 -218
23 -15 61 -45 84 -67 24 -22 45 -38 47 -35 6 6 -14 63 -37 106 -10 18 -32 39
-50 46 -38 17 -155 138 -188 196 -12 22 -26 41 -30 41 -15 0 -51 45 -66 82 -8
20 -26 44 -39 53 -13 8 -24 13 -24 11 0 -16 74 -145 85 -150 15 -5 69 -105 62
-112 -14 -15 -75 61 -115 143 -37 77 -59 106 -119 163 -41 39 -90 77 -110 85
-41 17 -43 18 -43 7z"/>
<path d="M7180 12890 c0 -16 4 -30 9 -30 5 0 11 -10 14 -22 15 -66 50 -174 66
-207 25 -48 49 -145 57 -228 3 -37 14 -82 24 -98 9 -17 20 -43 24 -58 8 -35
52 -57 114 -57 58 0 114 18 109 34 -2 6 -30 12 -63 14 -116 5 -119 8 -145 152
-27 146 -35 178 -72 280 -49 136 -94 228 -117 240 -18 10 -20 8 -20 -20z"/>
<path d="M11858 12915 c-3 -3 -57 -9 -119 -13 -113 -7 -114 -7 -114 -32 0 -32
-48 -49 -109 -40 -53 8 -66 4 -66 -21 0 -33 38 -39 131 -19 147 32 256 65 319
97 14 7 34 13 45 14 17 1 16 2 -5 9 -30 10 -75 12 -82 5z"/>
<path d="M9010 12872 c0 -13 72 -76 132 -115 43 -28 82 -42 170 -60 62 -14
129 -25 148 -24 38 1 124 -37 207 -90 53 -34 88 -42 95 -22 3 8 27 7 83 -4 44
-8 84 -13 88 -10 18 11 -76 54 -203 94 -52 17 -124 42 -160 55 -70 27 -121 41
-271 79 -53 13 -134 42 -180 64 -84 41 -109 48 -109 33z"/>
<path d="M11123 12825 c-22 -24 -53 -69 -67 -99 -20 -43 -36 -61 -66 -76 -21
-11 -47 -20 -55 -20 -9 0 -15 -5 -13 -11 5 -15 7 -15 61 1 33 9 66 29 100 61
29 27 55 49 59 49 14 0 41 64 29 68 -21 7 -12 40 14 46 31 8 33 26 3 26 -14
-1 -40 -19 -65 -45z"/>
<path d="M10190 12850 c0 -4 -8 -11 -17 -13 -12 -3 -9 -5 8 -6 15 0 57 -12 93
-26 37 -14 88 -25 114 -25 67 -1 115 -13 212 -53 115 -48 136 -53 144 -32 8
22 -42 69 -109 101 -59 29 -188 48 -263 39 -29 -4 -67 -2 -85 3 -53 17 -97 22
-97 12z"/>
<path d="M5770 12833 c0 -37 31 -95 79 -151 31 -37 66 -78 77 -91 53 -68 129
-141 146 -141 28 0 78 -29 78 -45 0 -8 9 -19 20 -25 16 -8 20 -8 20 4 0 9 -9
20 -20 26 -11 6 -41 37 -67 68 -77 94 -204 240 -262 304 -50 54 -71 69 -71 51z"/>
<path d="M7561 12738 c-10 -55 -10 -87 -2 -132 6 -33 11 -95 11 -139 0 -74 -2
-80 -31 -109 l-30 -31 -15 22 c-23 33 -34 25 -34 -23 l0 -45 58 6 c71 7 98 23
107 65 3 18 11 43 17 55 12 23 -3 145 -36 300 -23 111 -31 117 -45 31z"/>
<path d="M11815 12784 c-74 -26 -131 -55 -143 -74 -10 -17 -8 -18 46 -14 31 3
72 7 91 9 38 5 161 61 161 74 0 23 -95 25 -155 5z"/>
<path d="M7733 12679 c3 -24 9 -62 12 -84 l7 -40 -28 54 c-16 30 -30 48 -32
40 -3 -14 18 -120 37 -194 16 -62 14 -136 -6 -157 -15 -17 -15 -18 7 -18 28 0
49 26 50 62 0 33 21 82 29 69 3 -5 5 28 4 72 -1 63 -8 99 -30 156 -34 88 -59
108 -50 40z"/>
<path d="M9780 12703 c1 -9 122 -64 180 -83 49 -16 192 -23 210 -11 12 8 12
13 -4 30 -15 17 -31 21 -80 21 -73 0 -175 16 -234 36 -47 16 -72 18 -72 7z"/>
<path d="M10533 12684 c-7 -3 -13 -11 -13 -17 0 -14 -40 -32 -88 -41 -23 -4
-48 1 -77 14 -24 11 -52 20 -61 20 -16 0 -16 -2 1 -20 10 -11 23 -20 29 -20 6
0 25 -8 41 -17 44 -24 134 -23 169 2 15 11 46 29 68 41 23 12 36 24 31 27 -15
9 -86 17 -100 11z"/>
<path d="M12887 12679 c-14 -8 -16 -19 -11 -52 11 -83 33 -113 94 -132 14 -4
58 -22 98 -41 40 -19 80 -34 88 -34 33 0 6 34 -56 71 -68 41 -140 98 -140 111
0 18 -36 88 -45 88 -5 0 -18 -5 -28 -11z"/>
<path d="M11437 12621 c-3 -15 -3 -38 0 -50 7 -27 -15 -81 -33 -81 -8 0 -15
-12 -16 -30 -2 -32 -4 -54 -14 -137 -5 -43 -4 -54 10 -59 9 -3 16 -14 17 -23
1 -27 17 20 18 52 1 16 10 40 21 54 15 19 20 42 21 87 0 33 4 70 8 81 5 11 5
25 0 31 -5 6 -4 24 2 43 8 24 8 35 -1 46 -18 22 -27 18 -33 -14z"/>
<path d="M8990 12577 c0 -26 -28 -39 -106 -48 -80 -9 -116 -25 -135 -61 -11
-21 -10 -21 40 -15 28 3 66 12 83 20 68 29 107 37 177 37 48 0 73 -4 76 -12 4
-10 52 -13 190 -14 170 -1 185 0 185 16 0 23 -30 41 -102 63 -46 14 -61 15
-77 5 -15 -9 -36 -9 -98 0 -43 6 -113 15 -155 18 -65 5 -78 4 -78 -9z"/>
<path d="M12228 12537 c-27 -11 -48 -24 -48 -27 0 -4 77 -14 171 -23 94 -10
178 -21 187 -26 10 -5 44 -12 77 -16 33 -4 72 -13 87 -21 15 -8 41 -14 57 -14
17 0 34 -6 38 -14 9 -15 159 -31 168 -17 3 5 -11 15 -30 22 -26 10 -35 19 -35
35 0 13 -5 26 -10 29 -6 4 -22 24 -36 46 -29 46 -44 50 -44 11 0 -28 21 -66
52 -92 11 -9 15 -20 10 -28 -15 -23 -112 22 -146 68 -31 41 -45 47 -132 56
-31 2 -69 11 -85 19 -45 24 -221 19 -281 -8z"/>
<path d="M5840 12503 c0 -7 16 -33 35 -59 25 -32 35 -56 35 -82 1 -61 38 -122
95 -157 28 -16 65 -45 84 -62 18 -18 39 -33 46 -33 7 0 23 -8 36 -19 31 -24
77 -30 147 -19 76 12 87 22 64 60 -9 17 -33 43 -52 58 -30 23 -47 29 -107 32
-64 4 -80 9 -135 45 -75 48 -158 120 -158 137 0 16 -89 114 -90 99z"/>
<path d="M8515 12472 c-36 -12 -50 -22 -50 -36 0 -12 -14 -24 -42 -35 -59 -23
-71 -36 -44 -51 24 -12 81 -5 126 18 51 25 135 92 135 107 0 20 -59 18 -125
-3z"/>
<path d="M7874 12418 c10 -48 27 -60 100 -65 36 -3 63 -9 60 -14 -2 -4 -32
-20 -64 -35 -54 -24 -77 -44 -50 -44 21 0 118 22 163 38 44 15 48 19 42 42 -8
32 -29 48 -80 60 -22 6 -63 19 -90 30 -75 30 -89 27 -81 -12z"/>
<path d="M8803 12409 c-65 -12 -102 -35 -183 -114 -105 -102 -242 -214 -261
-215 -10 0 -30 -15 -46 -32 -41 -47 -83 -78 -105 -78 -15 0 -18 5 -14 17 17
44 72 114 117 148 55 41 51 58 -8 44 -22 -4 -54 -26 -84 -55 -38 -38 -50 -57
-55 -91 -4 -29 -14 -50 -32 -63 -23 -19 -24 -24 -20 -87 3 -41 20 -109 41
-170 26 -74 37 -128 42 -195 4 -51 16 -118 26 -148 11 -30 19 -61 19 -70 0 -8
7 -28 15 -44 8 -15 15 -33 15 -40 0 -42 101 -168 157 -196 16 -8 57 -33 94
-56 36 -24 112 -67 170 -97 315 -163 428 -231 577 -349 26 -21 81 -64 122 -97
41 -32 84 -69 95 -82 44 -52 88 -131 100 -176 6 -24 29 -81 55 -138 6 -11 21
-55 35 -97 14 -43 29 -86 35 -95 49 -86 61 -183 35 -287 -8 -34 -19 -117 -24
-186 -6 -69 -15 -177 -20 -240 -6 -63 -15 -164 -20 -225 -9 -110 -25 -204 -56
-325 -33 -134 -37 -160 -26 -212 9 -39 8 -62 -4 -109 -13 -48 -14 -67 -4 -93
10 -27 9 -38 -5 -65 -10 -18 -15 -35 -12 -38 9 -9 38 19 53 52 8 17 21 42 29
57 9 16 18 78 24 155 5 70 13 151 19 178 5 28 13 88 16 134 4 46 11 95 16 109
l10 26 19 -29 c16 -25 18 -41 13 -135 -3 -59 -3 -124 2 -146 l7 -39 19 24 c16
19 19 40 19 115 0 61 -5 100 -15 120 -11 20 -15 58 -15 130 1 136 16 304 28
319 7 8 8 36 3 77 -9 75 1 192 20 235 9 21 13 73 12 166 -2 146 -18 230 -55
280 -24 32 -58 150 -58 199 0 28 -9 45 -37 77 -21 22 -46 62 -57 89 -10 27
-42 87 -71 134 -62 100 -80 135 -89 174 -5 19 -10 26 -17 19 -7 -7 -5 -24 5
-53 15 -44 12 -70 -8 -70 -13 0 -55 41 -108 105 -18 22 -37 42 -42 44 -4 2
-18 14 -29 27 -12 14 -55 45 -96 71 -42 25 -106 68 -142 95 -37 27 -92 57
-122 67 -61 21 -130 63 -221 134 -32 25 -71 49 -88 52 -16 4 -32 13 -35 21 -3
8 -16 14 -29 14 -27 0 -89 52 -125 105 -13 19 -31 37 -39 40 -20 7 -58 64 -71
106 -14 47 -49 257 -49 296 0 18 -10 43 -24 60 -42 51 -68 173 -44 215 12 24
149 148 162 148 3 0 6 -9 6 -20 0 -32 25 -34 79 -5 58 32 131 102 94 90 -28
-8 -29 1 -5 37 40 60 166 136 295 178 55 18 82 21 140 16 249 -19 243 -19 314
2 37 11 100 25 138 30 39 6 86 17 105 26 35 15 34 15 -66 16 -69 0 -123 -6
-175 -20 -75 -20 -235 -28 -225 -11 10 16 -26 22 -98 15 -39 -3 -82 -2 -96 3
-14 5 -44 6 -67 2z"/>
<path d="M10815 12403 c-37 -14 -118 -41 -191 -64 -17 -5 -57 -9 -90 -9 -91 0
-146 -23 -217 -92 -34 -32 -86 -72 -114 -89 -58 -33 -69 -44 -53 -54 16 -10
90 30 160 86 100 80 180 110 285 107 37 -1 67 7 116 31 36 17 70 31 75 31 5 0
27 16 49 35 44 38 40 42 -20 18z"/>
<path d="M12303 12400 c-76 -11 -103 -19 -103 -30 0 -20 47 -33 144 -41 56 -4
141 -14 191 -22 80 -13 93 -13 122 2 18 9 33 19 33 22 0 11 -307 82 -330 78
-3 -1 -29 -5 -57 -9z"/>
<path d="M12705 12320 c3 -5 16 -10 27 -10 11 0 40 -20 65 -44 34 -35 43 -49
38 -68 -3 -14 2 -34 15 -53 14 -22 20 -25 20 -12 0 9 6 17 13 17 24 0 86 -26
107 -45 11 -10 20 -14 20 -8 0 15 -51 63 -66 63 -8 0 -14 3 -14 8 0 4 -14 16
-31 27 -17 11 -35 28 -40 37 -8 16 -3 17 54 16 l63 -1 18 -44 c10 -24 23 -49
30 -56 13 -14 52 -100 62 -137 16 -61 95 -126 81 -67 -13 55 -79 213 -107 254
-23 34 -28 48 -19 54 19 11 -7 38 -59 60 -53 23 -70 24 -93 3 -17 -15 -22 -15
-68 0 -56 18 -126 22 -116 6z"/>
<path d="M8280 12275 c-7 -19 -17 -25 -41 -25 -36 0 -211 -34 -283 -56 -57
-16 -142 -19 -151 -4 -3 5 6 12 20 16 14 3 25 11 25 17 0 14 -124 3 -175 -16
-70 -26 -99 -36 -150 -50 -46 -14 -29 -15 220 -12 149 2 299 8 335 14 36 7 89
16 119 21 61 11 81 24 81 51 0 12 9 21 28 25 80 17 97 44 27 44 -39 0 -47 -3
-55 -25z"/>
<path d="M11816 12273 c-11 -11 -6 -44 7 -42 29 4 37 -3 37 -28 0 -16 12 -59
26 -98 39 -109 42 -129 32 -186 -6 -35 -6 -55 1 -62 6 -6 11 -7 12 -1 0 5 2
30 4 55 1 26 10 61 19 79 9 18 16 42 16 53 0 28 -32 127 -41 127 -4 0 -23 22
-43 49 -36 48 -58 65 -70 54z"/>
<path d="M8810 12244 c-81 -26 -135 -58 -138 -85 -2 -13 -17 -41 -34 -61 -16
-21 -23 -36 -15 -33 8 3 24 19 36 35 28 39 71 60 141 70 57 8 170 54 170 69 0
9 -60 21 -95 20 -11 0 -40 -7 -65 -15z"/>
<path d="M11405 12128 c-4 -53 -5 -114 -2 -135 10 -70 42 -173 53 -173 10 0
37 169 36 221 -1 26 -32 93 -40 85 -4 -4 -14 16 -23 46 l-17 53 -7 -97z"/>
<path d="M11225 12100 c-11 -20 -26 -33 -46 -37 -17 -3 -42 -21 -59 -42 -17
-20 -39 -45 -49 -56 -36 -39 -43 -65 -36 -131 5 -53 10 -64 25 -64 25 0 26 4
34 80 7 66 27 103 51 94 7 -3 16 -1 20 5 3 6 17 11 29 11 32 0 42 16 49 75 4
28 9 60 13 73 9 33 -13 27 -31 -8z"/>
<path d="M12840 12075 c-13 -15 -5 -55 14 -67 6 -4 25 -8 42 -8 20 0 39 -10
59 -30 16 -16 38 -30 50 -30 14 0 31 -14 48 -41 15 -22 27 -44 27 -48 0 -14
88 -106 96 -99 19 19 -21 90 -107 188 -50 58 -95 109 -99 114 -6 5 -15 5 -23
-2 -11 -9 -19 -6 -37 13 -26 28 -52 32 -70 10z"/>
<path d="M5800 12063 c0 -9 40 -55 88 -102 87 -85 101 -106 158 -241 31 -74
31 -63 16 -445 -5 -143 -15 -280 -21 -305 -18 -70 -60 -189 -90 -255 -15 -33
-38 -87 -51 -120 -13 -33 -29 -74 -36 -92 -8 -17 -14 -36 -14 -43 0 -7 -8 -10
-20 -7 -32 8 -70 -29 -70 -68 0 -19 5 -37 10 -40 6 -3 10 -14 10 -24 0 -32
160 -181 194 -181 4 0 14 -7 22 -15 9 -8 24 -15 34 -15 10 0 21 -4 24 -9 14
-23 126 -24 126 -2 0 5 -17 20 -39 34 -40 27 -65 52 -131 130 -39 47 -49 64
-31 52 23 -13 21 20 -3 56 -15 22 -29 52 -32 68 -10 51 31 212 77 303 11 21
29 69 40 106 10 37 24 81 29 98 23 70 30 206 28 582 -1 395 -6 460 -36 470 -8
2 -12 -12 -12 -45 0 -28 -3 -53 -6 -56 -4 -4 -28 11 -53 32 -67 55 -197 151
-204 151 -4 0 -7 -7 -7 -17z"/>
<path d="M6845 12039 c-139 -10 -243 -28 -223 -40 30 -19 126 -20 270 -4 84 9
164 21 178 27 24 10 24 11 5 19 -24 9 -70 9 -230 -2z"/>
<path d="M12534 11978 c3 -18 11 -53 16 -78 6 -25 16 -70 22 -100 10 -53 28
-80 55 -80 7 0 13 11 13 24 0 14 5 28 10 31 15 9 12 69 -6 117 -16 42 -84 118
-106 118 -7 0 -8 -12 -4 -32z"/>
<path d="M12787 11972 c-46 -19 -51 -105 -13 -207 22 -57 20 -85 -4 -85 -26 0
-58 -100 -42 -134 15 -33 5 -113 -19 -163 -17 -35 -19 -49 -11 -66 37 -80 45
-153 23 -210 -14 -36 -31 -26 -31 17 0 30 -32 76 -53 76 -4 0 -7 -22 -7 -50 0
-27 -3 -50 -7 -50 -5 0 -20 24 -34 52 -15 29 -32 54 -39 56 -21 7 -6 -54 35
-143 37 -78 37 -82 32 -171 -4 -68 0 -112 14 -180 11 -49 23 -115 27 -147 8
-63 36 -105 48 -73 4 9 3 54 -1 99 -11 126 -9 166 9 237 9 36 26 112 37 170
11 58 27 112 35 120 12 12 14 6 14 -53 0 -36 -7 -100 -16 -141 -16 -73 -13
-159 6 -171 9 -6 16 21 25 110 4 33 13 79 21 103 17 48 21 362 6 403 -16 42
-24 136 -13 144 6 3 11 -2 11 -12 0 -11 6 -27 13 -36 11 -16 14 -14 31 17 17
31 18 42 7 92 -6 32 -28 90 -48 131 -23 46 -33 77 -27 83 5 5 14 6 20 2 11 -7
104 -148 104 -157 0 -3 14 -31 32 -62 l32 -57 7 33 c7 34 -14 118 -45 176 -26
52 -71 94 -105 101 -50 10 -119 114 -77 114 8 0 18 -5 21 -10 4 -6 26 -20 50
-31 24 -12 61 -41 82 -65 21 -25 53 -63 72 -85 28 -32 61 -51 61 -35 0 15 -25
66 -56 112 -20 29 -37 60 -38 68 -8 58 -122 104 -189 78z"/>
<path d="M12408 11944 c-5 -4 -8 -22 -8 -40 0 -18 -5 -56 -11 -84 -8 -38 -8
-64 1 -101 12 -50 19 -60 133 -180 9 -11 24 -19 33 -19 12 0 14 7 9 33 -8 37
-40 66 -67 59 -14 -3 -23 8 -44 54 -24 55 -25 62 -15 132 10 64 9 79 -6 114
-10 22 -21 36 -25 32z"/>
<path d="M10356 11794 c-34 -48 -66 -205 -63 -319 2 -97 8 -127 23 -112 13 13
20 83 12 122 -21 107 -22 106 26 198 46 87 58 137 34 137 -7 0 -21 -12 -32
-26z"/>
<path d="M8530 11763 c-77 -88 -116 -194 -107 -293 3 -32 8 -64 12 -70 12 -20
25 10 25 61 0 117 41 233 106 300 31 31 35 49 13 49 -4 0 -26 -21 -49 -47z"/>
<path d="M10537 11753 c-13 -12 -7 -57 10 -75 11 -13 18 -39 19 -76 1 -31 11
-88 23 -127 11 -41 20 -101 20 -145 1 -82 17 -120 52 -120 11 0 24 -10 29 -22
7 -20 9 -17 9 18 1 22 -3 44 -8 50 -5 5 -16 36 -25 69 -8 33 -22 89 -31 125
-9 36 -25 95 -35 131 -11 36 -20 75 -20 86 0 19 -27 93 -33 93 -2 0 -7 -3 -10
-7z"/>
<path d="M9545 11705 c-3 -14 -7 -36 -10 -50 -3 -13 -21 -50 -40 -82 -19 -32
-35 -66 -35 -75 0 -15 47 -68 60 -68 3 0 20 33 39 73 19 39 41 76 48 80 7 4
13 14 13 22 0 8 -16 -1 -37 -22 -35 -33 -38 -34 -41 -14 -2 11 3 33 12 48 8
16 20 38 26 51 5 13 17 30 26 39 22 22 8 30 -16 8 -18 -16 -20 -16 -20 -2 0
26 -19 20 -25 -8z"/>
<path d="M9400 11674 c-27 -26 -50 -52 -50 -58 0 -7 -20 -26 -45 -44 -28 -20
-47 -41 -50 -59 -4 -15 -13 -43 -21 -61 -12 -28 -17 -32 -29 -22 -8 7 -15 20
-15 30 0 10 -9 28 -20 41 l-21 24 7 -85 c4 -47 6 -97 5 -112 -1 -16 3 -28 9
-28 5 0 10 4 10 9 0 5 9 11 20 14 12 3 20 14 20 27 0 11 4 19 8 16 4 -2 32 47
62 110 47 99 57 114 78 114 28 0 75 47 90 90 17 47 -3 45 -58 -6z"/>
<path d="M11947 11684 c-19 -20 6 -126 28 -118 21 8 38 -13 79 -95 41 -81 51
-124 66 -284 8 -78 16 -117 27 -127 10 -10 17 -11 20 -4 2 7 13 9 25 6 21 -5
21 -4 14 104 -9 139 -25 208 -52 213 -30 5 -38 16 -79 98 -21 43 -48 94 -61
114 -12 19 -23 43 -25 53 -2 9 -8 16 -14 16 -5 -1 -12 6 -15 15 -3 9 -9 13
-13 9z"/>
<path d="M11633 11593 c3 -10 8 -35 12 -55 3 -20 12 -50 20 -65 8 -15 15 -40
15 -54 0 -15 6 -29 14 -32 7 -3 17 -23 20 -44 11 -58 37 -144 55 -180 19 -39
46 -46 31 -9 -5 13 -6 26 -3 29 7 8 -17 80 -31 92 -17 15 -66 165 -66 205 0
19 -9 46 -20 60 -11 14 -20 35 -20 48 0 13 -6 22 -16 22 -10 0 -14 -6 -11 -17z"/>
<path d="M11470 11531 c0 -5 7 -38 16 -72 9 -34 19 -121 23 -193 6 -137 18
-164 37 -86 12 51 21 54 41 13 13 -27 13 -26 8 21 -3 27 -5 57 -5 66 0 9 -11
29 -25 44 -16 17 -25 39 -25 59 0 18 -13 60 -30 95 -27 58 -40 75 -40 53z"/>
<path d="M8617 11484 c-15 -15 -5 -71 20 -114 14 -25 41 -75 59 -112 31 -62
54 -92 54 -69 0 6 11 13 25 17 33 8 32 18 -7 64 -18 21 -54 78 -79 126 -45 86
-58 102 -72 88z"/>
<path d="M11350 11435 c22 -23 23 -30 21 -163 -2 -126 0 -144 21 -186 12 -25
25 -46 29 -46 20 0 20 237 -1 265 -4 6 -15 37 -25 70 -15 54 -36 84 -59 85 -5
0 1 -11 14 -25z"/>
<path d="M10787 11365 c-4 -26 -7 -70 -7 -96 0 -40 3 -49 18 -49 21 0 39 -26
47 -73 4 -20 18 -50 31 -68 20 -28 24 -30 30 -14 4 10 2 32 -5 49 -19 46 -38
103 -61 181 -12 39 -27 81 -34 94 -12 22 -13 21 -19 -24z"/>
<path d="M11930 11378 c0 -4 11 -51 24 -105 14 -54 28 -114 31 -133 4 -20 20
-51 36 -70 l30 -34 -5 64 c-3 36 -5 84 -5 107 -1 34 -5 42 -22 45 -15 2 -27
18 -40 52 -16 44 -49 92 -49 74z"/>
<path d="M9964 11335 c-4 -11 -15 -30 -25 -42 -15 -21 -18 -21 -24 -5 -7 16
-8 15 -15 -3 -14 -33 -11 -69 8 -95 23 -33 42 -88 42 -125 0 -37 32 -141 48
-157 21 -21 37 8 36 70 0 39 -9 75 -26 113 -34 76 -43 131 -28 184 8 30 9 49
2 62 -10 17 -11 17 -18 -2z"/>
<path d="M10383 11282 c-13 -49 6 -101 45 -123 28 -16 32 -22 83 -134 29 -64
32 -68 39 -45 5 14 8 45 9 69 1 42 -3 48 -67 110 -63 62 -101 129 -86 153 3 4
1 8 -4 8 -5 0 -14 -17 -19 -38z"/>
<path d="M9090 11220 c0 -33 22 -69 75 -124 17 -17 50 -59 73 -93 24 -35 47
-63 51 -63 12 0 21 38 21 93 0 40 -3 47 -19 47 -11 0 -23 5 -26 10 -4 6 -15 8
-25 5 -34 -11 -109 50 -110 88 0 11 -9 30 -20 44 l-20 26 0 -33z"/>
<path d="M10280 11187 c0 -42 27 -104 69 -160 38 -50 41 -58 41 -118 0 -42 5
-72 15 -85 13 -17 14 -11 15 62 0 44 -5 85 -10 90 -6 6 -28 59 -49 120 -31 89
-42 110 -60 112 -16 3 -21 -2 -21 -21z"/>
<path d="M11600 11134 c1 -57 32 -117 103 -196 l27 -31 0 35 c0 19 -12 71 -26
116 -22 71 -28 82 -47 80 -12 0 -30 3 -39 7 -14 5 -18 2 -18 -11z"/>
<path d="M12521 10848 c4 -35 -2 -50 -17 -44 -14 5 -15 2 -9 -26 5 -18 9 -47
9 -65 1 -17 10 -41 21 -53 17 -19 20 -35 19 -122 -1 -60 -6 -104 -13 -111 -15
-15 -28 4 -36 54 -5 31 -9 35 -29 32 -19 -4 -27 3 -44 39 -11 23 -24 61 -28
83 -4 22 -18 53 -31 69 l-25 29 5 -114 c6 -130 11 -152 38 -144 24 8 64 -19
78 -53 25 -63 41 -179 41 -305 0 -141 7 -170 34 -148 9 8 16 18 16 24 0 5 11
33 24 61 13 28 29 75 35 105 6 30 15 59 20 65 28 35 43 269 18 289 -20 17 -57
123 -57 165 0 21 -7 50 -15 66 -8 15 -15 39 -15 53 0 13 -5 33 -10 44 -12 21
-32 26 -29 7z"/>
<path d="M10578 10818 c-6 -14 8 -75 31 -143 5 -16 18 -55 28 -85 10 -30 23
-55 28 -55 17 0 18 135 0 180 -21 54 -80 124 -87 103z"/>
<path d="M10345 10733 c-3 -32 -15 -72 -25 -90 -10 -17 -23 -56 -30 -87 -8
-38 -17 -57 -29 -61 -16 -5 -20 -25 -30 -153 -7 -81 -14 -169 -17 -197 -6 -60
-6 -68 2 -122 7 -49 30 -57 64 -23 24 24 25 32 3 92 -16 44 -16 54 1 175 10
70 19 152 21 181 2 33 10 61 20 72 11 12 18 36 17 62 0 25 8 56 19 74 19 32
24 71 13 112 -11 38 -21 24 -29 -35z"/>
<path d="M6970 10540 c0 -5 4 -10 9 -10 5 0 22 -5 37 -10 21 -9 25 -13 15 -23
-8 -8 -56 -12 -154 -12 l-142 0 -108 -64 c-68 -40 -121 -79 -145 -107 -43 -53
-85 -60 -104 -19 -9 21 -7 30 16 65 14 22 26 44 26 50 0 21 -29 9 -60 -26 -27
-31 -31 -42 -25 -68 11 -48 11 -51 0 -55 -5 -3 -16 -10 -23 -17 -7 -7 -20 -10
-30 -7 -12 4 -9 -1 8 -19 35 -35 80 -63 80 -49 0 15 30 14 64 -4 56 -30 131
-14 297 64 25 11 50 21 54 21 4 0 21 6 38 14 53 23 201 46 298 46 91 0 92 0
74 20 -33 37 -76 42 -295 38 -168 -4 -213 -7 -227 -20 -25 -21 -82 -42 -91
-34 -9 10 72 79 125 107 35 18 51 20 95 15 29 -4 127 -11 218 -15 178 -7 189
-11 350 -97 25 -13 101 -52 170 -85 69 -34 132 -65 140 -70 8 -5 26 -15 40
-21 14 -7 41 -24 60 -39 20 -15 78 -50 129 -78 56 -31 108 -67 128 -90 54 -64
193 -118 233 -92 13 9 13 14 2 32 -8 11 -9 18 -4 15 6 -4 8 2 5 14 -3 12 -8
18 -11 16 -6 -6 -131 91 -150 117 -8 9 -59 45 -115 78 -87 51 -219 138 -252
166 -15 13 -132 83 -138 83 -3 0 -52 22 -109 49 -146 68 -213 88 -377 111 -80
11 -146 20 -148 20 -2 0 -3 -4 -3 -10z"/>
<path d="M10394 10383 c-25 -49 -28 -228 -5 -228 14 0 30 49 63 193 11 45 10
55 -2 62 -26 17 -37 11 -56 -27z"/>
<path d="M10521 10253 c-30 -74 -41 -200 -18 -209 9 -3 18 -23 22 -45 4 -21
10 -41 14 -44 13 -8 52 36 47 53 -9 33 -26 148 -33 225 l-8 78 -24 -58z"/>
<path d="M12410 10286 c0 -20 -22 -101 -47 -173 -14 -40 -13 -44 17 -115 28
-65 32 -83 31 -166 0 -106 12 -117 42 -36 14 38 17 65 12 119 -3 39 -6 126 -8
195 -2 110 -5 129 -24 160 -17 26 -23 30 -23 16z"/>
<path d="M9948 10263 c-39 -44 -65 -221 -38 -263 12 -19 13 -17 39 75 12 44
29 102 36 129 10 36 11 53 3 63 -14 17 -22 16 -40 -4z"/>
<path d="M12228 10118 c-2 -6 0 -41 4 -77 4 -36 10 -90 14 -120 3 -29 10 -65
15 -78 20 -53 5 -202 -23 -219 -8 -5 -9 11 -4 55 7 60 7 61 -18 61 -32 0 -36
-8 -41 -82 -3 -35 -7 -90 -10 -123 -3 -33 -1 -94 4 -135 6 -42 6 -81 1 -90 -7
-13 -10 -12 -15 5 -17 50 -153 311 -192 365 -68 96 -197 202 -298 244 -80 34
-209 60 -295 59 -67 0 -106 -6 -185 -31 -188 -59 -200 -66 -323 -193 -61 -64
-112 -119 -112 -123 0 -19 61 8 180 80 80 49 239 124 262 124 9 0 19 4 22 9
11 17 150 33 251 29 96 -4 105 -7 181 -47 150 -80 291 -238 324 -363 7 -24 16
-48 22 -55 7 -8 4 -29 -7 -64 -22 -66 -17 -150 12 -182 19 -21 19 -25 6 -92
-8 -38 -22 -110 -31 -160 -9 -49 -20 -94 -24 -100 -3 -5 -9 -31 -13 -58 -4
-26 -11 -49 -15 -52 -5 -3 -11 -23 -15 -45 -4 -22 -10 -40 -15 -40 -4 0 -11
-12 -14 -27 -12 -51 -49 -137 -120 -283 l-71 -145 -155 -158 c-96 -98 -161
-156 -171 -155 -9 2 -43 -22 -76 -52 -32 -30 -80 -73 -107 -95 -27 -22 -63
-52 -81 -67 -17 -14 -64 -44 -105 -65 l-75 -38 -161 0 c-104 0 -166 4 -175 11
-8 6 -30 17 -50 23 -59 19 -104 73 -159 186 -57 118 -80 139 -110 103 -21 -25
-19 -58 6 -106 8 -15 14 -31 14 -35 0 -5 16 -42 36 -82 34 -70 41 -78 116
-126 94 -60 166 -77 373 -88 l130 -7 -38 -17 c-21 -10 -59 -22 -84 -26 -24 -5
-50 -14 -56 -20 -16 -16 29 -14 133 4 47 8 127 15 179 15 l94 0 -26 20 c-14
11 -32 20 -39 20 -8 0 -18 3 -21 7 -9 8 22 43 37 43 22 0 108 82 97 93 -11 11
-82 -22 -121 -58 -29 -26 -66 -40 -74 -27 -3 5 16 21 42 35 107 59 245 186
284 262 21 40 47 62 82 71 l29 7 -6 -64 c-3 -35 -11 -96 -17 -135 -9 -56 -9
-83 0 -120 7 -27 16 -89 20 -139 5 -57 17 -115 34 -160 15 -38 32 -86 38 -105
5 -19 15 -41 21 -49 7 -8 12 -49 11 -95 0 -74 -5 -92 -51 -206 -28 -69 -63
-163 -78 -209 -61 -194 -212 -435 -389 -621 -34 -36 -74 -82 -89 -102 -26 -34
-142 -129 -212 -173 -41 -26 -64 -56 -65 -84 0 -29 -57 -86 -138 -137 -31 -20
-87 -65 -125 -100 -37 -35 -73 -64 -81 -64 -7 0 -20 -8 -29 -18 -9 -10 -53
-35 -99 -56 -142 -66 -182 -85 -228 -114 -25 -15 -65 -36 -90 -46 -25 -10 -79
-34 -120 -53 -98 -46 -216 -80 -360 -103 -41 -7 -89 -20 -106 -30 -28 -16
-134 -40 -244 -55 -90 -13 -245 -46 -253 -54 -18 -18 76 -39 136 -30 86 11
157 29 205 50 30 14 54 17 82 13 29 -5 51 0 95 20 39 18 62 23 73 17 12 -7 25
-2 49 19 29 26 39 29 100 28 61 -1 78 4 163 43 52 24 124 61 160 81 35 21 85
45 111 53 25 9 60 29 77 46 18 17 32 26 32 20 0 -6 34 7 76 30 42 22 78 38 81
35 3 -3 22 6 42 18 20 13 64 37 96 54 37 18 67 42 78 61 22 37 73 75 88 65 7
-4 9 -3 5 4 -3 6 -1 14 5 17 19 12 21 -3 2 -22 -10 -10 -31 -37 -47 -58 -33
-45 -44 -59 -78 -96 -13 -14 -29 -37 -37 -52 -8 -15 -129 -141 -269 -280 -656
-650 -646 -639 -757 -807 -28 -42 -56 -72 -63 -66 -1 2 7 24 18 50 44 105 7
91 -50 -17 -18 -34 -40 -69 -49 -77 -20 -20 -169 -130 -175 -130 -3 0 -22 -11
-42 -25 -48 -32 -55 -32 -43 4 7 20 7 36 1 47 -7 12 -6 24 2 37 8 15 8 21 -1
24 -7 3 -13 21 -13 41 0 43 -48 140 -78 160 -20 13 -21 12 -16 -25 5 -43 7
-44 -58 57 -21 31 -73 97 -115 145 -119 133 -153 183 -153 222 0 34 -116 274
-146 303 -15 14 -16 10 -10 -40 4 -30 11 -68 16 -85 6 -16 21 -77 35 -134 14
-57 36 -128 48 -157 24 -60 116 -169 190 -227 26 -21 68 -65 94 -97 25 -33 51
-60 57 -60 6 0 24 -10 39 -23 21 -17 32 -38 43 -90 15 -65 15 -69 -3 -89 -28
-31 -59 -44 -178 -72 -106 -26 -195 -55 -232 -75 -10 -6 -47 -21 -83 -35 -87
-33 -131 -56 -135 -70 -2 -6 -7 -41 -10 -79 -4 -39 -13 -74 -22 -83 -20 -20
-24 -15 -32 47 -7 63 -26 74 -46 26 -8 -20 -19 -38 -23 -41 -10 -6 -42 90 -42
127 0 62 -24 75 -45 23 -10 -24 -13 -53 -8 -102 6 -61 5 -67 -11 -61 -9 4 -15
3 -12 -2 3 -5 -10 -8 -28 -7 l-33 1 5 128 c4 111 3 127 -10 122 -18 -7 -31
-33 -47 -90 -12 -45 -47 -73 -136 -110 -31 -12 -62 -28 -68 -34 -14 -14 -34
-14 -39 0 -5 14 -108 19 -125 6 -10 -7 -13 2 -14 39 -1 72 3 224 6 264 15 177
17 328 5 397 -13 72 -18 83 -91 180 -43 57 -84 113 -90 125 -21 41 -50 66 -70
61 -16 -5 -19 0 -19 29 0 55 25 125 101 284 103 218 121 250 236 431 96 151
133 226 133 271 0 59 -37 35 -97 -63 -86 -141 -176 -285 -178 -285 -7 0 9 46
20 60 19 23 24 68 10 80 -7 6 -10 21 -7 33 6 25 70 136 88 155 7 6 16 21 19
32 3 11 11 20 16 20 5 0 9 8 9 18 -1 12 -13 3 -40 -28 -37 -42 -41 -44 -54
-27 -13 17 -15 16 -35 -9 -27 -34 -47 -26 -62 26 -15 50 -78 104 -149 127
l-51 16 -29 -31 c-30 -34 -54 -40 -67 -19 -4 6 -8 93 -8 192 0 177 -12 255
-37 255 -5 0 -21 9 -35 20 -18 14 -21 21 -12 24 44 13 50 17 46 29 -7 23 -129
3 -252 -42 -16 -6 -47 -13 -68 -16 -28 -5 -40 -12 -47 -30 -5 -14 -20 -27 -34
-31 -21 -5 -23 -9 -13 -24 7 -12 25 -20 47 -22 31 -3 39 2 80 50 29 34 52 52
67 52 12 0 25 5 28 10 3 6 25 10 48 10 36 0 45 -5 64 -33 29 -43 42 -78 59
-167 14 -74 11 -130 -7 -130 -12 0 -12 -56 1 -78 5 -9 15 -30 20 -45 6 -18 22
-33 40 -40 17 -6 30 -14 30 -18 0 -8 -81 -29 -114 -29 -26 0 -35 14 -16 25 16
10 -8 35 -47 52 -56 23 -66 50 -103 281 -7 40 -15 70 -19 67 -3 -4 -9 -77 -13
-163 -4 -86 -10 -192 -14 -236 l-6 -79 26 7 c21 5 26 3 26 -13 0 -10 6 -23 13
-28 7 -6 89 -8 212 -4 229 7 242 13 140 68 -49 26 -56 33 -41 39 25 10 175
-14 203 -32 26 -16 21 -44 -8 -44 -13 0 -26 -14 -39 -42 -11 -24 -35 -62 -53
-85 -17 -23 -50 -68 -72 -99 -22 -31 -56 -75 -76 -98 -59 -66 -108 -150 -216
-369 -34 -68 -49 -158 -31 -193 7 -16 24 -31 38 -34 19 -4 32 -21 55 -68 16
-34 32 -62 36 -62 4 0 17 24 29 54 l23 54 27 -16 c23 -14 27 -21 23 -47 -4
-25 2 -38 32 -70 105 -113 195 -216 211 -241 10 -16 23 -32 28 -36 16 -11 14
-583 -2 -638 -7 -25 -17 -56 -20 -70 -12 -41 -38 -37 -49 7 -6 22 -12 32 -15
23 -48 -142 -36 -176 92 -263 47 -31 109 -74 138 -93 28 -20 52 -40 52 -45 0
-5 4 -9 8 -9 10 0 42 65 42 85 0 16 27 45 41 45 6 0 7 -5 3 -12 -5 -8 2 -9 24
-5 17 4 34 2 37 -3 3 -5 -15 -53 -40 -106 -45 -96 -54 -137 -35 -149 17 -11
76 44 95 88 62 150 50 140 133 115 31 -9 32 -11 26 -46 -4 -20 -18 -59 -30
-87 -13 -27 -24 -56 -24 -62 0 -22 35 -14 60 12 13 14 49 33 80 41 93 27 133
67 206 211 18 34 35 81 39 105 4 24 11 48 16 54 5 6 24 42 44 81 30 60 42 74
87 99 29 16 57 31 63 33 5 1 28 11 50 21 22 9 77 29 123 44 46 15 91 30 100
35 9 4 35 16 57 27 22 10 44 20 49 23 5 2 1 -8 -10 -22 -18 -24 -148 -97 -174
-97 -7 0 -26 -6 -43 -14 -18 -8 -61 -27 -96 -41 -130 -54 -168 -95 -178 -191
-7 -67 13 -74 40 -14 28 66 84 110 223 179 71 35 147 73 169 83 22 11 56 33
75 48 54 42 139 100 147 100 4 0 39 16 78 35 46 22 89 53 119 84 25 28 46 46
46 42 0 -13 -41 -62 -82 -100 -21 -19 -38 -38 -38 -43 0 -4 23 -8 50 -8 45 0
54 4 88 38 20 21 46 56 57 78 11 21 25 44 31 49 6 6 31 37 55 70 60 82 58 79
111 133 25 27 76 70 113 98 37 27 85 66 108 88 23 21 51 46 62 55 11 9 31 30
45 45 l25 29 -30 -7 c-27 -7 -25 -3 28 46 32 29 85 79 118 111 33 31 63 57 66
57 6 0 128 109 210 188 30 28 57 52 61 52 3 0 22 15 42 34 19 18 69 59 110 90
41 31 112 93 157 137 45 43 91 79 101 79 9 0 44 27 77 61 33 33 80 74 105 91
87 59 399 359 478 458 24 30 76 99 116 152 40 53 88 112 105 131 54 57 130
168 168 247 37 75 37 76 41 225 3 148 -5 229 -22 223 -5 -2 -8 -37 -7 -78 2
-73 -16 -165 -56 -285 -19 -57 -57 -124 -110 -194 -21 -28 -54 -71 -73 -98
-19 -26 -50 -64 -67 -83 -18 -19 -33 -40 -33 -47 0 -6 -4 -13 -8 -15 -5 -1
-39 -41 -77 -88 -73 -92 -93 -114 -80 -90 4 8 15 23 23 32 8 10 12 24 9 32 -4
11 -1 13 10 9 10 -4 14 -2 10 4 -9 15 3 44 14 37 8 -5 11 2 8 22 0 3 8 12 18
21 10 8 11 11 3 7 -8 -4 -5 3 8 15 12 12 22 26 22 32 0 6 5 7 12 3 7 -4 8 -3
4 4 -4 7 -2 17 4 24 36 44 180 252 180 262 0 3 13 25 30 49 28 42 65 125 89
198 14 44 15 265 1 274 -5 3 -10 20 -10 37 0 33 -47 148 -61 148 -5 0 -9 5 -9
10 0 6 -15 32 -33 58 -18 26 -51 76 -73 112 l-39 65 1 150 c1 150 13 217 49
285 7 14 16 42 20 63 10 53 29 48 21 -5 -10 -61 -26 -218 -32 -318 -5 -71 -4
-88 10 -99 34 -28 43 56 20 190 -4 24 2 66 16 120 12 46 28 107 35 134 6 28
15 59 20 70 26 66 60 141 66 145 3 3 12 17 20 32 8 15 33 58 56 96 23 37 45
80 48 95 4 15 11 27 16 27 5 0 9 5 9 11 0 5 12 36 26 67 47 104 54 120 54 131
0 6 4 19 9 29 26 46 91 193 97 216 3 14 10 29 15 31 4 3 11 27 15 53 3 26 10
52 14 57 4 6 11 28 14 50 8 43 45 153 57 170 8 11 34 102 54 190 37 165 45
196 61 236 10 24 20 49 24 54 23 33 45 138 45 220 0 92 -5 109 -63 215 -20 36
-36 72 -46 103 -6 19 -22 23 -28 5z"/>
<path d="M7006 10053 c-83 -30 -70 -40 56 -44 l114 -4 224 -113 c124 -62 254
-128 290 -147 80 -42 120 -53 120 -33 0 35 -112 106 -364 232 -230 115 -238
118 -314 122 -57 3 -90 0 -126 -13z"/>
<path d="M5840 10042 c0 -24 73 -65 128 -71 32 -4 62 -10 68 -13 15 -10 154
-38 186 -38 14 0 33 3 42 6 20 8 21 53 1 60 -8 3 -17 15 -21 26 -5 18 -12 19
-77 13 -40 -3 -106 -1 -147 5 -128 19 -180 22 -180 12z"/>
<path d="M6717 9913 c-12 -7 -32 -12 -45 -13 -13 0 -52 -7 -88 -16 -51 -13
-70 -23 -90 -49 -25 -33 -31 -60 -15 -69 35 -22 403 -13 400 9 -1 11 -143 49
-222 60 -53 8 -57 22 -13 43 23 12 41 11 119 -3 51 -9 106 -20 123 -25 17 -6
68 -10 115 -10 115 0 123 -9 44 -49 -36 -19 -65 -38 -65 -42 0 -12 66 -11 88
1 51 28 94 41 124 38 52 -5 41 -22 -29 -48 -33 -12 -48 -50 -20 -50 7 0 17
-10 22 -22 6 -12 22 -29 36 -37 23 -13 30 -12 80 13 30 15 69 38 88 51 19 14
47 25 62 25 24 0 29 -4 29 -25 0 -18 6 -26 25 -30 14 -3 36 -7 50 -10 38 -8
30 -23 -17 -35 -53 -14 -165 -49 -196 -61 -34 -13 -75 -11 -109 6 -37 18 -123
108 -123 129 0 22 -31 28 -58 10 -50 -32 -155 -151 -149 -168 4 -12 116 -12
145 -1 15 6 14 9 -7 26 -21 17 -22 22 -10 30 21 13 44 11 70 -8 13 -10 33 -23
44 -29 36 -20 24 -39 -21 -36 -44 3 -93 -25 -80 -46 9 -15 139 -16 165 -2 10
5 49 12 87 16 38 3 82 13 98 20 16 8 34 14 40 14 6 0 24 7 39 15 15 8 43 17
61 21 18 3 47 18 63 33 44 40 96 53 139 35 19 -8 34 -10 34 -4 0 10 -52 40
-70 40 -6 0 -40 14 -75 30 -35 17 -68 30 -73 30 -5 0 -28 13 -53 29 -24 16
-65 32 -91 35 -26 4 -57 15 -70 25 -13 10 -66 40 -118 66 l-95 48 -183 1
c-127 1 -190 -3 -205 -11z"/>
<path d="M10754 9859 c-41 -43 -87 -69 -121 -70 -145 -1 -154 -3 -179 -34 -13
-16 -24 -40 -24 -52 0 -45 -105 -105 -126 -72 -3 6 -17 -20 -31 -57 -13 -38
-37 -85 -54 -104 -16 -19 -44 -54 -61 -77 -17 -23 -44 -46 -59 -52 -18 -6 -29
-19 -34 -39 -3 -17 -20 -51 -36 -76 -25 -37 -29 -51 -23 -80 3 -20 10 -36 14
-36 19 0 131 124 204 225 43 61 87 118 97 128 10 10 26 32 35 50 21 43 74 91
163 149 69 45 101 58 101 41 -1 -18 -22 -38 -100 -91 -85 -58 -106 -82 -73
-82 29 0 84 38 138 94 28 29 79 72 115 96 110 74 128 87 160 113 16 14 30 28
30 31 0 3 -16 6 -36 6 -19 0 -43 4 -53 10 -14 7 -24 3 -47 -21z"/>
<path d="M11345 9720 c-27 -5 -59 -13 -70 -18 -130 -61 -165 -84 -264 -176
-58 -54 -116 -103 -128 -109 -31 -14 -29 -26 7 -38 17 -6 30 -15 30 -20 0 -4
16 -11 35 -15 76 -14 167 47 212 142 14 30 37 63 52 73 45 31 197 76 206 60 3
-4 26 -11 50 -15 25 -3 48 -10 51 -15 3 -5 16 -9 28 -9 25 0 123 -68 168 -116
45 -49 70 -118 70 -198 1 -136 -19 -391 -32 -419 -14 -28 -7 -48 10 -31 24 24
53 130 75 274 26 173 22 274 -16 359 -27 61 -178 213 -243 245 -59 29 -162 40
-241 26z"/>
<path d="M6074 9587 c-52 -53 -84 -96 -125 -172 -17 -33 -47 -81 -65 -108 -19
-26 -34 -49 -34 -52 0 -3 -16 -28 -35 -55 -19 -27 -35 -52 -35 -55 0 -3 -5
-11 -10 -18 -6 -7 -37 -48 -70 -92 -33 -44 -75 -100 -93 -125 -42 -56 -79
-128 -74 -143 4 -14 118 101 175 178 4 6 26 36 50 67 23 31 42 60 42 63 0 3 9
18 19 33 40 57 109 170 154 252 26 47 58 103 72 125 14 22 34 59 46 83 11 23
24 42 29 42 6 0 10 5 10 10 0 18 -14 9 -56 -33z"/>
<path d="M11497 9409 c-15 -14 -18 -28 -14 -71 5 -59 28 -152 40 -164 4 -4 7
-14 7 -22 0 -29 53 -132 68 -132 12 0 14 11 8 63 -3 34 -12 67 -20 72 -7 6
-17 26 -21 45 -4 19 -13 44 -20 55 -7 11 -13 43 -14 70 0 28 -4 62 -8 76 -8
25 -9 25 -26 8z"/>
<path d="M10903 9288 c-17 -22 0 -276 21 -320 23 -47 99 -104 154 -116 39 -9
56 -2 31 14 -6 3 -20 27 -30 53 -11 25 -31 57 -44 71 -27 28 -44 69 -38 88 8
20 39 14 121 -25 58 -28 96 -56 154 -113 66 -66 77 -82 83 -121 13 -90 -46
-222 -140 -308 -72 -65 -113 -77 -214 -62 -78 12 -104 27 -194 114 -31 31 -35
42 -42 107 -5 46 -4 75 3 82 12 12 22 2 100 -102 44 -59 101 -110 123 -110 14
0 11 28 -13 114 -26 89 -64 139 -134 174 -22 11 -45 27 -52 34 -6 8 -18 54
-27 103 -17 96 -24 112 -49 98 -23 -13 -66 -74 -66 -94 0 -10 -4 -21 -10 -24
-5 -3 -10 -40 -10 -81 0 -43 4 -74 10 -74 6 0 10 -10 10 -22 0 -45 34 -138 50
-138 22 0 54 -36 73 -80 8 -19 33 -55 56 -78 22 -24 41 -47 41 -51 0 -35 -87
-42 -131 -10 -30 21 -59 18 -40 -5 14 -17 4 -26 -31 -26 -76 0 -93 59 -33 116
34 32 55 70 55 100 0 23 -59 8 -92 -23 -38 -36 -78 -119 -78 -162 0 -28 8 -45
31 -69 17 -18 40 -32 50 -32 10 0 21 -4 24 -10 9 -15 118 -12 158 5 20 8 48
28 64 43 37 37 159 67 234 57 45 -6 58 -3 113 25 99 50 216 186 216 251 0 10
4 20 9 23 5 3 14 41 20 84 17 114 -2 153 -117 240 -73 55 -119 78 -231 116
-83 28 -100 41 -134 105 -25 49 -39 58 -54 39z"/>
<path d="M9911 9078 c-6 -18 -10 -80 -10 -138 0 -58 -5 -121 -11 -140 -14 -50
-12 -121 5 -170 19 -54 19 -143 -1 -195 -11 -27 -16 -87 -19 -190 -2 -87 -8
-163 -16 -180 -24 -60 0 -254 42 -338 28 -55 35 -39 44 104 6 99 4 117 -9 128
-32 27 -11 227 34 326 29 65 44 144 42 232 -2 57 4 104 18 155 11 40 34 130
50 201 16 70 41 149 55 177 29 57 29 60 12 60 -17 0 -124 -106 -141 -139 -7
-14 -16 -46 -20 -69 -10 -65 -34 -118 -47 -105 -8 8 -10 60 -7 162 2 83 1 151
-3 151 -4 0 -12 -15 -18 -32z"/>
<path d="M6593 9018 c4 -13 12 -48 18 -78 6 -30 15 -63 20 -72 7 -13 5 -18 -4
-18 -9 0 -14 -12 -15 -30 0 -17 -3 -39 -7 -49 -3 -11 3 -34 15 -54 60 -101 94
-297 71 -403 -11 -47 -19 -60 -51 -82 -22 -15 -39 -32 -40 -39 -1 -30 -40 -35
-196 -24 -168 13 -204 22 -204 56 0 28 -18 45 -50 45 -14 0 -31 5 -38 12 -11
11 -313 18 -356 8 -33 -8 -38 40 -11 95 30 59 37 138 12 143 -12 3 -23 -10
-38 -45 -11 -26 -27 -61 -35 -77 -8 -16 -14 -36 -14 -44 0 -11 -3 -12 -14 -3
-8 7 -16 45 -20 101 -6 68 -11 90 -22 90 -11 0 -13 -15 -8 -77 8 -107 29 -169
76 -222 38 -44 39 -46 18 -51 -19 -4 -20 -7 -9 -17 25 -20 152 -32 350 -32
166 0 207 -3 274 -21 98 -26 298 -30 344 -6 45 24 98 93 118 155 35 108 13
272 -57 426 -22 50 -32 96 -22 108 12 14 -22 175 -41 200 -7 8 -25 18 -41 21
-26 6 -28 5 -23 -16z"/>
<path d="M10441 8798 c-5 -13 -19 -72 -31 -133 -13 -60 -27 -114 -31 -119 -5
-6 -9 -26 -9 -45 l0 -36 29 57 c16 31 40 69 55 84 51 56 62 214 15 214 -11 0
-23 -10 -28 -22z"/>
<path d="M10082 8318 c-10 -99 -23 -180 -48 -322 -6 -31 -4 -38 7 -34 9 3 22
43 36 104 12 54 28 119 36 144 11 36 12 63 4 133 -6 48 -13 87 -17 87 -3 0
-12 -51 -18 -112z"/>
<path d="M9496 8289 c-27 -32 -76 -124 -76 -142 0 -5 -6 -23 -14 -40 -38 -84
-55 -129 -75 -197 -62 -212 -72 -238 -107 -272 -50 -48 -58 -90 -43 -215 6
-56 15 -103 18 -103 3 0 17 16 30 35 26 38 27 55 16 167 -7 73 -7 77 17 101
18 18 32 23 51 20 24 -5 26 -8 25 -69 -1 -77 15 -114 50 -114 23 0 24 2 19 44
-4 24 -16 72 -28 106 -20 60 -21 64 -5 155 23 137 71 278 122 355 26 40 52
176 36 192 -6 6 -19 -3 -36 -23z"/>
<path d="M10403 8295 c-9 -24 2 -75 29 -130 22 -47 45 -67 118 -102 8 -4 34
-22 58 -40 43 -32 46 -33 146 -33 l102 0 53 45 c29 25 58 45 65 45 7 0 35 12
64 26 42 21 52 31 52 51 0 25 -2 25 -45 20 -25 -4 -60 -14 -78 -24 -22 -11
-65 -18 -140 -21 -93 -4 -115 -2 -170 18 -72 26 -148 74 -196 124 -39 40 -49
43 -58 21z"/>
<path d="M5942 8067 c-20 -21 -21 -28 -12 -111 8 -82 20 -116 41 -116 5 0 9
36 9 80 0 44 4 80 9 80 12 0 21 -25 21 -58 l0 -26 22 21 c26 26 31 110 9 136
-20 25 -73 21 -99 -6z"/>
<path d="M6191 8034 c-18 -15 -36 -43 -43 -67 -6 -23 -25 -57 -41 -76 -25 -29
-28 -38 -22 -75 9 -51 11 -53 82 -102 32 -21 76 -52 98 -69 45 -34 100 -59
161 -75 23 -5 76 -33 118 -61 73 -48 196 -109 219 -109 6 0 0 11 -13 25 -33
35 -18 42 19 9 19 -17 28 -31 22 -37 -5 -5 9 -34 36 -73 39 -57 55 -70 123
-104 43 -22 97 -42 119 -46 39 -6 40 -5 49 27 7 27 5 35 -7 41 -13 5 -13 7 3
7 33 2 57 61 24 61 -25 0 -107 72 -263 231 -236 240 -246 249 -276 249 -29 0
-50 21 -104 103 -93 143 -227 206 -304 141z m-15 -174 c5 -29 17 -49 44 -74
33 -30 47 -35 107 -40 37 -4 105 -14 151 -23 71 -13 86 -20 103 -45 16 -22 18
-32 9 -43 -9 -11 -6 -22 14 -52 14 -21 26 -41 26 -45 0 -21 -32 -3 -72 40 -24
26 -56 53 -71 59 -31 14 -34 8 -10 -19 15 -17 15 -18 -14 -18 -34 0 -112 38
-226 110 -113 70 -110 67 -102 118 12 84 31 98 41 32z"/>
<path d="M9512 8018 c-26 -34 -42 -81 -43 -134 0 -33 -5 -89 -10 -125 -15
-112 27 -267 88 -331 15 -16 35 -28 44 -28 19 0 15 11 -64 180 -24 52 -25 62
-22 182 4 117 17 200 36 221 8 10 0 47 -11 47 -4 0 -12 -6 -18 -12z"/>
<path d="M9649 7998 c-23 -43 11 -230 59 -323 24 -46 79 -105 145 -155 61 -46
89 -105 102 -215 3 -27 15 -91 27 -142 12 -51 20 -95 17 -98 -12 -11 -38 8
-63 45 -14 22 -38 46 -53 54 -31 15 -221 40 -268 35 l-30 -4 35 -22 c23 -13
65 -25 118 -31 71 -9 91 -16 147 -52 35 -23 71 -52 79 -65 17 -25 22 -131 8
-150 -22 -30 -235 -66 -278 -47 -27 13 -134 16 -172 5 -46 -12 1 -23 99 -23
90 0 97 -1 118 -26 21 -24 26 -25 69 -18 26 5 72 8 102 9 67 0 78 -21 32 -63
-29 -27 -31 -27 -175 -27 -80 0 -149 -3 -153 -7 -4 -4 -1 -14 6 -23 9 -11 34
-15 99 -15 92 0 131 -14 131 -49 0 -23 -36 -56 -82 -76 -21 -8 -58 -35 -83
-60 -24 -25 -50 -45 -56 -45 -25 0 -70 -42 -67 -63 3 -18 -10 -27 -82 -57 -47
-19 -109 -48 -139 -63 -83 -41 -114 -44 -139 -12 -16 20 -28 26 -49 23 -24 -3
-28 -7 -25 -30 2 -20 -5 -33 -28 -49 -18 -14 -30 -32 -30 -45 0 -14 -14 -34
-34 -51 -46 -37 -195 -114 -276 -143 -36 -12 -93 -35 -126 -51 -47 -22 -76
-29 -123 -29 -46 0 -61 -3 -61 -14 0 -8 -5 -18 -11 -22 -6 -4 -81 -8 -166 -10
-101 -2 -159 -7 -169 -15 -8 -6 -29 -15 -47 -18 -32 -7 -31 -7 48 -46 70 -33
89 -38 150 -38 44 0 95 8 135 21 36 11 93 24 128 27 34 4 65 11 68 16 3 5 14
9 25 9 11 0 62 18 114 40 52 22 99 40 104 40 12 0 148 65 222 106 26 14 63 41
83 59 20 18 43 36 51 39 8 3 15 9 15 14 0 8 76 48 135 72 39 16 131 62 200
101 39 21 77 41 85 45 8 4 29 19 45 34 31 28 169 110 186 110 25 0 91 44 124
82 57 66 115 191 94 203 -5 4 -9 2 -9 -4 0 -13 -82 -130 -119 -170 -26 -27
-51 -40 -51 -26 0 2 14 33 32 69 23 46 40 67 62 77 27 12 32 21 43 77 7 35 23
84 34 110 25 54 30 154 11 237 -22 100 -35 182 -41 267 -8 97 -19 121 -47 94
-14 -15 -19 -15 -31 -4 -7 8 -16 32 -20 54 -7 45 -24 70 -122 173 -95 100
-105 124 -106 243 -1 64 -6 102 -14 112 -18 22 -28 20 -42 -6z"/>
<path d="M9186 7771 c-11 -26 -58 -82 -117 -142 -54 -54 -102 -111 -105 -125
-10 -39 3 -173 21 -224 38 -103 60 -86 61 48 1 92 3 110 18 179 4 15 27 51 52
78 60 67 96 142 92 191 l-3 37 -19 -42z"/>
<path d="M9640 7643 c0 -29 27 -90 49 -112 34 -34 43 -58 29 -80 -10 -17 -9
-23 7 -41 23 -26 78 -50 111 -50 18 0 24 5 24 23 0 27 -17 44 -78 77 -34 19
-42 29 -40 50 2 26 -41 99 -81 134 -21 19 -21 19 -21 -1z"/>
<path d="M6130 7491 c0 -25 94 -78 178 -100 95 -25 140 -45 222 -101 66 -45
114 -60 193 -60 66 0 82 17 51 52 -16 17 -27 19 -75 14 -64 -6 -102 10 -179
73 -65 54 -93 66 -200 85 -88 16 -147 30 -177 42 -7 3 -13 1 -13 -5z"/>
<path d="M8859 7368 c-30 -58 -22 -160 20 -244 16 -32 39 -84 51 -114 29 -70
34 -75 53 -56 13 14 14 23 3 68 -7 29 -23 73 -36 98 -29 57 -49 147 -50 228 0
34 -4 62 -10 62 -5 0 -19 -19 -31 -42z"/>
<path d="M9430 7393 c0 -10 14 -39 30 -65 l29 -46 98 -1 c119 -1 160 -8 194
-32 39 -28 74 -38 90 -28 11 6 11 13 3 26 -26 42 -57 53 -161 58 -119 6 -170
22 -229 70 -48 40 -54 42 -54 18z"/>
<path d="M9080 7146 c0 -19 9 -55 20 -81 17 -39 17 -46 5 -41 -43 16 21 -62
100 -122 22 -17 25 -21 10 -18 -51 12 -125 17 -125 9 0 -11 97 -55 167 -77 62
-19 143 -21 167 -3 15 11 10 16 -46 41 -172 78 -166 75 -179 113 -19 59 -98
213 -109 213 -5 0 -10 -15 -10 -34z"/>
<path d="M8289 7132 c-13 -11 -34 -22 -45 -26 -33 -10 -55 -41 -59 -81 -2 -21
-8 -42 -14 -48 -30 -30 14 -33 47 -4 l22 20 0 -30 c0 -46 21 -58 61 -35 28 15
36 28 49 75 13 52 13 58 -3 69 -9 7 -18 25 -20 40 -4 38 -10 41 -38 20z"/>
<path d="M6074 7024 c3 -9 6 -18 6 -20 0 -2 7 -4 15 -4 8 0 15 -3 15 -8 0 -4
10 -12 23 -17 13 -6 37 -40 59 -85 35 -70 37 -81 38 -170 0 -91 -11 -141 -50
-225 -5 -11 -21 -49 -35 -85 -14 -36 -30 -74 -35 -85 -15 -32 -32 -108 -31
-135 1 -14 5 -101 9 -194 5 -116 11 -171 19 -173 21 -7 30 30 37 155 6 103 11
127 27 143 10 10 19 25 19 32 0 7 11 23 24 34 13 12 28 29 33 38 12 21 68 12
78 -12 6 -18 -11 -34 -31 -26 -36 14 -49 -168 -15 -216 12 -18 20 -54 25 -111
10 -126 41 -203 56 -139 9 36 28 34 35 -5 5 -22 14 -38 26 -41 21 -7 42 -49
53 -106 3 -20 15 -44 26 -54 18 -16 20 -16 26 -2 3 9 1 65 -6 124 -6 59 -13
135 -16 168 l-5 60 20 -23 c11 -12 22 -41 26 -65 4 -23 10 -46 14 -52 3 -5 11
-48 18 -95 22 -157 24 -162 39 -149 10 8 14 41 15 123 1 61 4 102 6 92 4 -16
8 -11 19 20 18 50 17 67 -1 111 -23 54 -29 39 -34 -76 -2 -38 -12 -19 -47 87
-23 67 -33 116 -34 158 0 60 -1 62 -39 87 -33 22 -111 129 -111 152 0 11 51
-5 80 -25 15 -10 46 -26 71 -34 59 -21 236 -21 309 -1 30 9 89 22 130 31 41 8
86 18 100 21 l25 5 -25 10 c-16 6 -57 7 -110 1 -47 -4 -164 -7 -261 -6 -200 3
-247 13 -318 71 -29 24 -53 35 -73 34 l-30 -1 7 57 6 57 -32 -32 c-24 -24 -41
-58 -64 -130 -17 -53 -37 -99 -43 -101 -24 -8 -23 29 3 90 15 35 35 81 44 103
9 22 35 74 59 115 50 88 82 184 82 247 0 27 4 42 10 38 6 -3 10 -20 10 -36 0
-17 5 -50 11 -75 10 -37 14 -42 26 -32 28 23 54 90 56 143 2 47 -2 57 -28 85
-58 61 -84 60 -85 -2 0 -18 -5 -28 -15 -28 -9 0 -20 -19 -29 -47 l-15 -48 -1
45 c-1 91 -73 195 -141 206 -24 4 -44 14 -50 25 -12 23 -34 25 -25 3z m333
-966 c28 -35 45 -122 39 -192 -5 -53 -2 -84 9 -116 23 -65 3 -73 -34 -14 -24
39 -31 60 -31 104 0 30 -7 76 -14 101 -10 31 -12 59 -6 82 4 20 5 38 2 41 -3
4 2 6 10 6 9 0 20 -6 25 -12z"/>
<path d="M7975 6958 c-27 -11 -51 -24 -53 -29 -2 -5 -8 -9 -14 -9 -5 0 -31
-18 -57 -40 -52 -44 -163 -90 -217 -90 -18 0 -35 -4 -38 -9 -6 -10 137 -8 199
3 l40 7 -29 -24 c-33 -28 -25 -38 21 -25 21 5 38 19 48 37 20 39 92 91 127 91
32 0 97 30 117 54 10 12 9 18 -8 35 -26 26 -69 26 -136 -1z"/>
<path d="M9387 6962 c-12 -18 140 -50 328 -69 48 -4 63 -2 74 10 22 27 3 37
-72 37 -40 0 -90 5 -112 10 -65 15 -212 23 -218 12z"/>
<path d="M9084 6792 c3 -6 19 -13 35 -17 33 -7 63 -34 40 -36 -8 0 -21 -2 -29
-4 -8 -1 -37 1 -63 5 -62 9 -47 -12 25 -36 43 -14 59 -15 100 -5 27 6 84 11
126 11 l77 1 -40 15 c-22 9 -69 23 -105 30 -35 8 -69 19 -75 24 -17 14 -99 25
-91 12z"/>
<path d="M7645 6606 c-81 -20 -145 -56 -145 -82 0 -21 3 -22 68 -19 93 6 196
16 201 20 12 13 -19 25 -65 25 -68 0 -72 19 -11 49 47 23 30 26 -48 7z"/>
<path d="M8330 6530 c0 -6 24 -25 53 -44 37 -24 56 -31 64 -24 14 11 81 2 98
-12 6 -5 25 -2 43 7 23 11 29 19 21 24 -10 6 -10 11 1 24 10 11 10 19 2 27 -8
8 -27 7 -69 -5 -52 -15 -63 -15 -107 -2 -57 17 -106 19 -106 5z"/>
<path d="M7285 6509 c-3 -9 8 -58 25 -109 23 -69 28 -96 19 -106 -6 -7 -8 -23
-4 -36 11 -37 103 -216 156 -304 27 -45 49 -86 49 -92 0 -13 28 -42 41 -42 14
0 11 38 -5 68 -8 15 -29 61 -47 102 -18 41 -52 104 -75 140 -56 89 -61 98 -69
150 -19 122 -76 266 -90 229z"/>
<path d="M7190 6305 c0 -3 11 -32 25 -65 14 -32 36 -103 50 -157 27 -102 53
-152 41 -78 -14 91 -16 121 -7 95 28 -78 131 -244 131 -212 0 6 -16 44 -35 83
-19 40 -35 77 -35 84 0 13 -55 122 -101 199 -21 34 -41 56 -51 56 -10 0 -18
-2 -18 -5z"/>
<path d="M10280 6303 c-24 -3 -46 -16 -71 -41 -19 -20 -60 -59 -90 -87 -30
-27 -67 -66 -82 -86 -15 -20 -51 -49 -79 -64 -29 -16 -71 -47 -93 -68 -22 -22
-65 -50 -95 -64 -30 -13 -65 -38 -78 -54 -15 -18 -39 -33 -67 -40 -26 -7 -59
-25 -79 -45 -19 -19 -43 -34 -54 -34 -10 0 -40 -14 -65 -31 -34 -23 -65 -33
-115 -39 -84 -11 -113 -22 -171 -64 -33 -24 -54 -33 -71 -29 -39 7 -104 -54
-130 -123 -15 -42 -18 -60 -9 -70 17 -21 3 -47 -43 -77 l-43 -28 52 4 c37 3
60 11 83 30 17 15 41 27 52 27 12 0 43 14 70 32 61 38 135 49 172 24 26 -16
66 -22 66 -8 0 4 -18 15 -40 25 -22 10 -40 25 -40 32 0 8 -4 16 -9 19 -13 9
-101 -21 -125 -41 -11 -11 -33 -24 -48 -31 -43 -18 -45 4 -4 44 42 41 50 72
14 53 -24 -13 -68 -59 -68 -71 0 -5 -7 -8 -15 -8 -26 0 -17 20 37 76 46 49 53
53 68 39 15 -13 21 -13 56 5 21 12 51 28 65 38 81 53 162 93 195 98 22 2 49
15 64 29 14 13 51 36 82 50 32 14 60 30 63 35 3 5 42 28 85 51 44 23 80 45 80
50 0 5 24 21 53 35 61 31 201 126 274 186 29 24 79 66 112 93 33 28 74 61 91
73 17 13 35 32 40 43 10 17 7 19 -22 17 -18 0 -49 -3 -68 -5z"/>
<path d="M7140 6224 c0 -3 6 -20 14 -37 19 -43 36 -139 36 -201 0 -28 7 -83
15 -121 8 -39 15 -89 15 -112 0 -51 11 -54 44 -10 18 23 23 40 19 62 -11 68
-43 222 -52 255 -20 70 -91 199 -91 164z"/>
<path d="M7563 6081 c-13 -21 -5 -39 82 -155 38 -52 67 -81 92 -91 20 -8 38
-13 41 -10 3 3 -17 28 -45 57 -65 69 -92 110 -75 116 20 6 14 21 -29 60 -51
46 -52 46 -66 23z"/>
<path d="M8561 6063 l-135 -4 40 -18 c94 -44 244 -63 244 -32 0 5 11 12 24 15
13 3 26 15 29 26 4 18 1 20 -31 18 -21 -1 -97 -4 -171 -5z"/>
<path d="M6680 5727 c0 -12 6 -47 14 -77 8 -30 20 -90 26 -132 7 -43 16 -78
20 -78 17 0 30 68 30 161 0 96 -1 99 -22 96 -15 -1 -26 6 -36 26 -16 33 -32
35 -32 4z"/>
<path d="M7857 5690 c-43 -15 -64 -17 -84 -9 -33 12 -39 6 -16 -19 34 -35 40
-54 30 -92 -9 -32 -5 -47 33 -135 73 -169 119 -226 263 -328 85 -60 106 -102
141 -292 31 -165 80 -315 140 -434 24 -47 57 -122 73 -166 27 -75 31 -80 56
-77 15 1 27 -2 27 -8 0 -5 4 -10 9 -10 5 0 -1 19 -14 43 -50 90 -57 104 -76
152 -19 51 -48 174 -75 320 -8 44 -19 89 -24 100 -5 11 -11 47 -15 80 -3 33
-10 87 -15 120 -5 33 -12 77 -15 97 -3 21 -11 43 -18 51 -7 7 -16 21 -22 31
-5 9 -55 48 -110 85 -114 77 -150 119 -221 257 -26 52 -61 108 -76 125 -15 16
-28 34 -28 39 0 4 74 6 164 3 173 -6 206 1 145 32 -90 47 -195 60 -272 35z"/>
<path d="M8085 5453 c47 -74 99 -133 116 -133 4 0 9 9 12 20 4 16 14 20 45 20
58 0 59 14 5 45 -39 22 -174 75 -191 75 -2 0 4 -12 13 -27z"/>
<path d="M10270 5143 c-60 -25 -89 -53 -115 -106 -30 -64 -99 -136 -185 -193
-48 -32 -70 -54 -83 -83 -13 -29 -45 -62 -113 -116 -51 -42 -94 -79 -94 -83 0
-4 -14 -22 -31 -41 -23 -25 -34 -30 -42 -22 -20 20 20 75 116 157 140 120 167
146 167 160 0 25 -81 -14 -134 -64 -28 -26 -91 -81 -139 -121 -105 -87 -136
-141 -81 -141 24 0 26 -3 21 -32 -3 -18 -8 -42 -12 -53 -4 -11 14 2 42 31 27
28 77 71 111 96 35 25 112 92 171 149 60 57 134 126 165 153 32 26 69 67 84
90 46 71 122 163 148 177 23 12 50 47 42 53 -2 2 -19 -3 -38 -11z"/>
<path d="M9155 4630 c-44 -10 -126 -23 -183 -30 -57 -6 -113 -15 -125 -19 -20
-8 -18 -9 13 -15 19 -4 60 -8 90 -10 88 -7 121 -17 118 -35 -3 -19 9 -41 24
-41 6 0 8 10 4 24 -8 31 6 36 105 36 82 0 156 21 144 40 -3 5 -24 10 -46 10
-42 0 -48 6 -22 25 20 15 9 35 -20 34 -12 -1 -58 -9 -102 -19z"/>
</g>
</svg>
