<?xml version="1.0" encoding="UTF-8" standalone="no"?>
<svg
   xmlns:dc="http://purl.org/dc/elements/1.1/"
   xmlns:cc="http://creativecommons.org/ns#"
   xmlns:rdf="http://www.w3.org/1999/02/22-rdf-syntax-ns#"
   xmlns:svg="http://www.w3.org/2000/svg"
   xmlns="http://www.w3.org/2000/svg"
   xmlns:sodipodi="http://sodipodi.sourceforge.net/DTD/sodipodi-0.dtd"
   xmlns:inkscape="http://www.inkscape.org/namespaces/inkscape"
   sodipodi:docname="techtalisman_logo.svg"
   inkscape:version="1.0 (4035a4fb49, 2020-05-01)"
   id="svg8"
   version="1.1"
   viewBox="0 0 236.40997 52.916666"
   height="200"
   width="893.51801">
  <defs
     id="defs2" />
  <sodipodi:namedview
     units="px"
     inkscape:window-maximized="1"
     inkscape:window-y="-9"
     inkscape:window-x="-9"
     inkscape:window-height="1051"
     inkscape:window-width="1920"
     showborder="true"
     showgrid="false"
     inkscape:document-rotation="0"
     inkscape:current-layer="layer2"
     inkscape:document-units="px"
     inkscape:cy="419.87337"
     inkscape:cx="403.93262"
     inkscape:zoom="0.70710678"
     inkscape:pageshadow="2"
     inkscape:pageopacity="0.0"
     borderopacity="1.0"
     bordercolor="#666666"
     pagecolor="#ffffff"
     id="base" />
  <metadata
     id="metadata5">
    <rdf:RDF>
      <cc:Work
         rdf:about="">
        <dc:format>image/svg+xml</dc:format>
        <dc:type
           rdf:resource="http://purl.org/dc/dcmitype/StillImage" />
        <dc:title></dc:title>
      </cc:Work>
    </rdf:RDF>
  </metadata>
  <g
     style="display:inline"
     inkscape:label="Layer 2"
     id="layer2"
     inkscape:groupmode="layer">
    <g
       transform="matrix(1.1960613,0,0,1.1960613,-16.658734,-20.69203)"
       id="g1036">
      <g
         transform="matrix(0.90106513,0,0,0.80853289,-7.725306,26.305044)"
         id="g1100">
        <path
           d="M 233.18666,13.498611 V 0.636831 h 2.52673 l 5.26404,8.58914 v -8.58914 h 2.41268 v 12.86178 h -2.6057 l -5.18507,-8.38736 v 8.38736 z"
           style="font-style:normal;font-variant:normal;font-weight:bold;font-stretch:normal;font-size:17.9679px;line-height:1.25;font-family:Arial;-inkscape-font-specification:'Arial Bold';letter-spacing:1.12581px;word-spacing:0.0224599px;fill:#0048ff;fill-opacity:0.65098;stroke:none;stroke-width:0.280749"
           id="path880" />
        <g
           id="g1067">
          <path
             id="path858"
             style="font-style:normal;font-variant:normal;font-weight:bold;font-stretch:normal;font-size:17.9679px;line-height:1.25;font-family:Arial;-inkscape-font-specification:'Arial Bold';letter-spacing:1.12581px;word-spacing:0.0224599px;fill:#0048ff;fill-opacity:0.65098;stroke:none;stroke-width:0.280749"
             d="M 96.035564,13.286391 V 2.600411 H 92.21914 v -2.1758 h 10.221 v 2.1758 h -3.807653 v 10.68598 z" />
          <path
             id="path860"
             style="font-style:normal;font-variant:normal;font-weight:bold;font-stretch:normal;font-size:17.9679px;line-height:1.25;font-family:Arial;-inkscape-font-specification:'Arial Bold';letter-spacing:1.12581px;word-spacing:0.0224599px;fill:#0048ff;fill-opacity:0.65098;stroke:none;stroke-width:0.280749"
             d="M 105.25044,13.286391 V 0.424611 h 9.53667 v 2.1758 h -6.93975 v 2.85135 h 6.45722 v 2.16702 h -6.45722 v 3.50059 h 7.18541 v 2.16702 z" />
          <path
             id="path862"
             style="font-style:normal;font-variant:normal;font-weight:bold;font-stretch:normal;font-size:17.9679px;line-height:1.25;font-family:Arial;-inkscape-font-specification:'Arial Bold';letter-spacing:1.12581px;word-spacing:0.0224599px;fill:#0048ff;fill-opacity:0.65098;stroke:none;stroke-width:0.280749"
             d="m 126.60768,8.557541 2.51796,0.79838 q -0.57904,2.10561 -1.93014,3.1321 -1.34233,1.01771 -3.41285,1.01771 -2.56183,0 -4.21122,-1.74591 -1.6494,-1.75467 -1.6494,-4.79027 0,-3.21106 1.65817,-4.98328 1.65817,-1.781 4.36037,-1.781 2.36004,0 3.83397,1.39497 0.87734,0.8247 1.31601,2.36882 l -2.5706,0.61413 q -0.22811,-1.00016 -0.9563,-1.57921 -0.71942,-0.57904 -1.75468,-0.57904 -1.43006,0 -2.32495,1.02649 -0.88611,1.02648 -0.88611,3.32511 0,2.439 0.87734,3.47426 0.87734,1.03526 2.28108,1.03526 1.03526,0 1.781,-0.658 0.74574,-0.65801 1.07035,-2.07052 z" />
          <path
             id="path864"
             style="font-style:normal;font-variant:normal;font-weight:bold;font-stretch:normal;font-size:17.9679px;line-height:1.25;font-family:Arial;-inkscape-font-specification:'Arial Bold';letter-spacing:1.12581px;word-spacing:0.0224599px;fill:#0048ff;fill-opacity:0.65098;stroke:none;stroke-width:0.280749"
             d="M 132.49744,13.286391 V 0.424611 h 2.59692 v 5.06224 h 5.08857 v -5.06224 h 2.59692 v 12.86178 h -2.59692 v -5.62374 h -5.08857 v 5.62374 z" />
          <path
             id="path866"
             style="font-style:normal;font-variant:normal;font-weight:bold;font-stretch:normal;font-size:17.9679px;line-height:1.25;font-family:Arial;-inkscape-font-specification:'Arial Bold';letter-spacing:1.12581px;word-spacing:0.0224599px;fill:#0048ff;fill-opacity:0.65098;stroke:none;stroke-width:0.280749"
             d="M 149.49431,13.286391 V 2.600411 h -3.81642 v -2.1758 h 10.22099 v 2.1758 h -3.80765 v 10.68598 z" />
          <path
             id="path868"
             style="font-style:normal;font-variant:normal;font-weight:bold;font-stretch:normal;font-size:17.9679px;line-height:1.25;font-family:Arial;-inkscape-font-specification:'Arial Bold';letter-spacing:1.12581px;word-spacing:0.0224599px;fill:#0048ff;fill-opacity:0.65098;stroke:none;stroke-width:0.280749"
             d="m 168.97405,13.286391 h -2.82503 l -1.12299,-2.92153 h -5.14121 l -1.06158,2.92153 h -2.75484 l 5.0096,-12.86178 h 2.74607 z m -4.7815,-5.08856 -1.77222,-4.77273 -1.73713,4.77273 z" />
          <path
             id="path870"
             style="font-style:normal;font-variant:normal;font-weight:bold;font-stretch:normal;font-size:17.9679px;line-height:1.25;font-family:Arial;-inkscape-font-specification:'Arial Bold';letter-spacing:1.12581px;word-spacing:0.0224599px;fill:#0048ff;fill-opacity:0.65098;stroke:none;stroke-width:0.280749"
             d="m 171.55624,13.286391 v -12.7565 h 2.59692 v 10.58948 h 6.45722 v 2.16702 z" />
          <path
             sodipodi:nodetypes="ccccc"
             id="path872"
             style="font-style:normal;font-variant:normal;font-weight:bold;font-stretch:normal;font-size:17.9679px;line-height:1.25;font-family:Arial;-inkscape-font-specification:'Arial Bold';letter-spacing:1.12581px;word-spacing:0.0224599px;fill:#0048ff;fill-opacity:0.65098;stroke:none;stroke-width:0.280749"
             d="M 183.38489,13.286391 V 0.424611 h 3.25839 v 12.86178 z" />
          <path
             id="path874"
             style="font-style:normal;font-variant:normal;font-weight:bold;font-stretch:normal;font-size:17.9679px;line-height:1.25;font-family:Arial;-inkscape-font-specification:'Arial Bold';letter-spacing:1.12581px;word-spacing:0.0224599px;fill:#0048ff;fill-opacity:0.65098;stroke:none;stroke-width:0.280749"
             d="m 189.18984,9.319531 2.52879,-0.22359 q 0.217,1.27408 0.90486,1.8767 0.69664,0.60269 1.881,0.61302 1.25455,0.0109 1.8908,-0.50992 0.6451,-0.52957 0.65131,-1.24018 0.004,-0.4562 -0.26523,-0.77441 -0.26036,-0.3269 -0.92504,-0.56959 -0.45483,-0.16189 -2.07432,-0.57962 -2.08347,-0.53583 -2.9191,-1.29766 -1.1751,-1.07188 -1.16177,-2.59839 0.009,-0.98258 0.5687,-1.82874 0.56898,-0.85486 1.61688,-1.29318 1.05667,-0.43824 2.53931,-0.4253 2.42137,0.0211 3.63156,1.09332 1.21896,1.07225 1.26491,2.84495 l -2.59782,0.0914 q -0.15804,-0.99281 -0.70699,-1.42751 -0.5401,-0.4434 -1.63673,-0.45297 -1.13173,-0.01 -1.77622,0.44951 -0.41493,0.29468 -0.4193,0.79475 -0.004,0.4562 0.3792,0.78417 0.48769,0.41662 2.37877,0.88058 1.89107,0.46397 2.79049,0.95437 0.90826,0.48171 1.40983,1.31959 0.51041,0.82918 0.49977,2.04864 -0.01,1.1054 -0.63219,2.06508 -0.62253,0.95967 -1.74962,1.42362 -1.127,0.45517 -2.80266,0.44055 -2.43891,-0.0213 -3.73629,-1.15564 -1.29731,-1.14314 -1.5329,-3.30353 z" />
          <path
             id="path876"
             style="font-style:normal;font-variant:normal;font-weight:bold;font-stretch:normal;font-size:17.9679px;line-height:1.25;font-family:Arial;-inkscape-font-specification:'Arial Bold';letter-spacing:1.12581px;word-spacing:0.0224599px;fill:#0048ff;fill-opacity:0.65098;stroke:none;stroke-width:0.280749"
             d="M 202.90406,13.498611 V 0.636831 h 3.88661 l 2.33372,8.77338 2.3074,-8.77338 h 3.89539 v 12.86178 H 212.9145 V 3.374121 l -2.55306,10.12449 h -2.50042 l -2.54428,-10.12449 v 10.12449 z" />
          <path
             id="path878"
             style="font-style:normal;font-variant:normal;font-weight:bold;font-stretch:normal;font-size:17.9679px;line-height:1.25;font-family:Arial;-inkscape-font-specification:'Arial Bold';letter-spacing:1.12581px;word-spacing:0.0224599px;fill:#0048ff;fill-opacity:0.65098;stroke:none;stroke-width:0.280749"
             d="m 230.64833,13.498611 h -2.82503 l -1.123,-2.92153 h -5.1412 l -1.06158,2.92153 h -2.75485 l 5.00961,-12.86178 h 2.74607 z m -4.7815,-5.08856 -1.77222,-4.77273 -1.73713,4.77273 z" />
          <g
             transform="translate(-7.0355885,-52.139048)"
             style="font-style:normal;font-weight:normal;font-size:9.87778px;line-height:1.25;font-family:sans-serif;letter-spacing:0.645583px;word-spacing:0px;fill:#001d36;fill-opacity:0.596078;stroke:none;stroke-width:0.0839485"
             id="text885"
             aria-label="ENGINEERING">
            <g
               transform="translate(41.159507,-63.23597)"
               id="g935"
               style="fill:#001d36;fill-opacity:0.596078">
              <path
                 d="M 67.715667,151.66765 H 62.521151 V 144.486 h 5.194516 v 1.38906 h -3.352079 v 1.23955 h 3.110922 v 1.38906 h -3.110922 v 1.77492 h 3.352079 z"
                 style="font-style:normal;font-variant:normal;font-weight:bold;font-stretch:normal;font-size:9.87778px;font-family:sans-serif;-inkscape-font-specification:'sans-serif Bold';fill:#001d36;fill-opacity:0.596078;stroke-width:0.0839485"
                 id="path901" />
              <path
                 d="m 76.449647,151.66765 h -1.78456 l -3.048221,-4.92925 v 4.92925 H 69.919123 V 144.486 h 2.213818 l 2.618963,4.11413 V 144.486 h 1.697743 z"
                 style="font-style:normal;font-variant:normal;font-weight:bold;font-stretch:normal;font-size:9.87778px;font-family:sans-serif;-inkscape-font-specification:'sans-serif Bold';fill:#001d36;fill-opacity:0.596078;stroke-width:0.0839485"
                 id="path903" />
              <path
                 d="m 85.289737,151.25768 q -0.482314,0.1881 -1.278131,0.37621 -0.795817,0.18328 -1.586811,0.18328 -1.832792,0 -2.869765,-0.99357 -1.036974,-0.99839 -1.036974,-2.75401 0,-1.67363 1.04662,-2.69613 1.04662,-1.02733 2.917996,-1.02733 0.709001,0 1.350478,0.13022 0.641477,0.12541 1.427648,0.50643 v 1.68328 h -0.207395 q -0.135048,-0.10129 -0.395497,-0.28457 -0.260449,-0.1881 -0.501606,-0.31832 -0.279742,-0.15434 -0.655946,-0.26528 -0.371382,-0.11093 -0.790994,-0.11093 -0.49196,0 -0.89228,0.1447 -0.40032,0.14469 -0.718647,0.44372 -0.303858,0.28939 -0.482314,0.73794 -0.173633,0.44373 -0.173633,1.02733 0,1.19132 0.631831,1.82315 0.631831,0.63183 1.866553,0.63183 0.106109,0 0.231511,-0.005 0.130224,-0.005 0.236333,-0.0145 v -1.40835 h -1.432471 v -1.3553 h 3.313494 z"
                 style="font-style:normal;font-variant:normal;font-weight:bold;font-stretch:normal;font-size:9.87778px;font-family:sans-serif;-inkscape-font-specification:'sans-serif Bold';fill:#001d36;fill-opacity:0.596078;stroke-width:0.0839485"
                 id="path905" />
              <path
                 d="m 91.472279,151.66765 h -4.205774 v -1.27331 h 1.176845 v -4.63503 H 87.266505 V 144.486 h 4.205774 v 1.27331 h -1.176845 v 4.63503 h 1.176845 z"
                 style="font-style:normal;font-variant:normal;font-weight:bold;font-stretch:normal;font-size:9.87778px;font-family:sans-serif;-inkscape-font-specification:'sans-serif Bold';fill:#001d36;fill-opacity:0.596078;stroke-width:0.0839485"
                 id="path907" />
              <path
                 d="m 100.16767,151.66765 h -1.784555 l -3.048221,-4.92925 v 4.92925 H 93.63715 V 144.486 h 2.213819 l 2.618962,4.11413 V 144.486 h 1.697739 z"
                 style="font-style:normal;font-variant:normal;font-weight:bold;font-stretch:normal;font-size:9.87778px;font-family:sans-serif;-inkscape-font-specification:'sans-serif Bold';fill:#001d36;fill-opacity:0.596078;stroke-width:0.0839485"
                 id="path909" />
              <path
                 d="M 107.85021,151.66765 H 102.6557 V 144.486 h 5.19451 v 1.38906 h -3.35208 v 1.23955 h 3.11092 v 1.38906 h -3.11092 v 1.77492 h 3.35208 z"
                 style="font-style:normal;font-variant:normal;font-weight:bold;font-stretch:normal;font-size:9.87778px;font-family:sans-serif;-inkscape-font-specification:'sans-serif Bold';fill:#001d36;fill-opacity:0.596078;stroke-width:0.0839485"
                 id="path911" />
              <path
                 d="m 115.24818,151.66765 h -5.19451 V 144.486 h 5.19451 v 1.38906 h -3.35208 v 1.23955 h 3.11093 v 1.38906 h -3.11093 v 1.77492 h 3.35208 z"
                 style="font-style:normal;font-variant:normal;font-weight:bold;font-stretch:normal;font-size:9.87778px;font-family:sans-serif;-inkscape-font-specification:'sans-serif Bold';fill:#001d36;fill-opacity:0.596078;stroke-width:0.0839485"
                 id="path913" />
              <path
                 d="m 121.47896,146.68535 q 0,-0.2701 -0.11093,-0.46302 -0.11094,-0.19293 -0.38103,-0.30386 -0.1881,-0.0772 -0.43891,-0.0916 -0.2508,-0.0193 -0.5836,-0.0193 h -0.67041 v 1.93408 h 0.56913 q 0.44373,0 0.74276,-0.0434 0.29903,-0.0434 0.50161,-0.19775 0.19292,-0.14952 0.27974,-0.32797 0.0916,-0.18328 0.0916,-0.48714 z m 2.88905,4.9823 h -2.26205 l -1.95819,-2.63343 h -0.85369 v 2.63343 h -1.84244 V 144.486 h 3.1061 q 0.63665,0 1.09485,0.0724 0.4582,0.0723 0.85852,0.3135 0.40514,0.24116 0.64147,0.62701 0.24116,0.38103 0.24116,0.9598 0,0.79582 -0.37138,1.29743 -0.36656,0.5016 -1.05144,0.8344 z"
                 style="font-style:normal;font-variant:normal;font-weight:bold;font-stretch:normal;font-size:9.87778px;font-family:sans-serif;-inkscape-font-specification:'sans-serif Bold';fill:#001d36;fill-opacity:0.596078;stroke-width:0.0839485"
                 id="path915" />
              <path
                 d="m 129.71615,151.66765 h -4.20577 v -1.27331 h 1.17684 v -4.63503 h -1.17684 V 144.486 h 4.20577 v 1.27331 h -1.17684 v 4.63503 h 1.17684 z"
                 style="font-style:normal;font-variant:normal;font-weight:bold;font-stretch:normal;font-size:9.87778px;font-family:sans-serif;-inkscape-font-specification:'sans-serif Bold';fill:#001d36;fill-opacity:0.596078;stroke-width:0.0839485"
                 id="path917" />
              <path
                 d="m 138.41155,151.66765 h -1.78456 l -3.04822,-4.92925 v 4.92925 h -1.69775 V 144.486 h 2.21382 l 2.61896,4.11413 V 144.486 h 1.69775 z"
                 style="font-style:normal;font-variant:normal;font-weight:bold;font-stretch:normal;font-size:9.87778px;font-family:sans-serif;-inkscape-font-specification:'sans-serif Bold';fill:#001d36;fill-opacity:0.596078;stroke-width:0.0839485"
                 id="path919" />
              <path
                 d="m 147.25164,151.25768 q -0.48232,0.1881 -1.27813,0.37621 -0.79582,0.18328 -1.58681,0.18328 -1.8328,0 -2.86977,-0.99357 -1.03697,-0.99839 -1.03697,-2.75401 0,-1.67363 1.04662,-2.69613 1.04662,-1.02733 2.91799,-1.02733 0.709,0 1.35048,0.13022 0.64148,0.12541 1.42765,0.50643 v 1.68328 h -0.2074 q -0.13504,-0.10129 -0.39549,-0.28457 -0.26045,-0.1881 -0.50161,-0.31832 -0.27974,-0.15434 -0.65595,-0.26528 -0.37138,-0.11093 -0.79099,-0.11093 -0.49196,0 -0.89228,0.1447 -0.40032,0.14469 -0.71865,0.44372 -0.30385,0.28939 -0.48231,0.73794 -0.17363,0.44373 -0.17363,1.02733 0,1.19132 0.63183,1.82315 0.63183,0.63183 1.86655,0.63183 0.10611,0 0.23151,-0.005 0.13023,-0.005 0.23633,-0.0145 v -1.40835 h -1.43247 v -1.3553 h 3.3135 z"
                 style="font-style:normal;font-variant:normal;font-weight:bold;font-stretch:normal;font-size:9.87778px;font-family:sans-serif;-inkscape-font-specification:'sans-serif Bold';fill:#001d36;fill-opacity:0.596078;stroke-width:0.0839485"
                 id="path921" />
            </g>
          </g>
          <g
             id="g960"
             transform="translate(32.927606,-61.365084)">
            <path
               sodipodi:nodetypes="ccsccccccsssc"
               id="path949"
               d="m -8.8967431,86.319811 0.00534,-18.428234 15.095749,-8.699621 C 14.507007,54.407162 21.904061,50.227748 21.904061,50.227748 21.749322,57.777092 21.780427,71.65718 21.780427,71.65718 l -6.539264,3.72986 -6.5392642,3.729858 -0.00884,7.671898 -0.00884,7.671898 -8.57362172,5.143674 c -4.71549138,2.829022 -8.67241718,5.143682 -8.79316768,5.143682 -0.1207505,0 -0.2171356,-8.29271 -0.2141881,-18.428239 z"
               style="fill:#0048ff;fill-opacity:0.65098;stroke:none;stroke-width:0.424265" />
            <path
               sodipodi:nodetypes="ccccc"
               id="path951"
               d="M 8.6842188,94.460694 21.760629,86.02379 35.192537,94.467428 21.38533,101.81947 Z"
               style="fill:#0048ff;fill-opacity:0.65098;stroke:none;stroke-width:0.424265" />
            <path
               sodipodi:nodetypes="cccccccssscc"
               id="path953"
               d="M 43.95044,99.73184 35.250817,94.516533 V 86.967376 79.418223 L 28.515625,75.537702 21.780432,71.65718 c 0.0084,-7.143282 -0.04813,-14.287512 0.123629,-21.429432 0,0 7.08864,3.981441 15.217642,8.660034 8.129003,4.678593 14.992087,8.704712 15.251297,8.94693 0.36914,0.344943 0.450243,4.414745 0.374177,18.776418 l -0.09711,18.33602 z"
               style="fill:#001e36;fill-opacity:0.596078;stroke:none;stroke-width:0.424265" />
          </g>
          <path
             style="fill:#001e36;fill-opacity:0.596078;stroke:none;stroke-width:0.424265"
             d="m 41.629505,17.751814 6.727456,-3.831098 6.351074,-3.62862 -0.0099,7.183305 -0.0099,7.183305 -13.07641,8.436904 z"
             id="path955"
             sodipodi:nodetypes="ccccccc" />
        </g>
      </g>
    </g>
  </g>
</svg>
