<?xml version="1.0" encoding="utf-8"?>
<!-- Generator: Adobe Illustrator 24.0.1, SVG Export Plug-In . SVG Version: 6.00 Build 0)  -->
<svg version="1.1" id="Layer_1" xmlns="http://www.w3.org/2000/svg" xmlns:xlink="http://www.w3.org/1999/xlink" x="0px" y="0px"
	 viewBox="0 0 157 157" style="enable-background:new 0 0 157 157;" xml:space="preserve">
<style type="text/css">
	.st0{fill:#23282C;}
	.st1{fill:#FFFFFF;}
	.st2{fill:#92CF34;}
	.st3{fill:#AAC1CE;}
	.st4{fill:#E4EAED;}
	.st5{fill:#8BA0AE;}
	.st6{fill:#435B6C;}
	.st7{fill:#FFD07D;}
	.st8{fill:#CFDCE5;}
</style>
<path class="st0" d="M125.9,154.6H30.6c-3.9,0-7.1-3.2-7.1-7.1V10.4c0-3.9,3.2-7.1,7.1-7.1h95.3c3.9,0,7.1,3.2,7.1,7.1v137.1
	C133,151.4,129.8,154.6,125.9,154.6z"/>
<g>
	<rect x="30.6" y="15.1" class="st1" width="95.4" height="120.8"/>
	<path class="st1" d="M78.8,150.5c-3,0-5.4-2.4-5.4-5.4c0-3,2.4-5.4,5.4-5.4c3,0,5.4,2.4,5.4,5.4C84.2,148.1,81.7,150.5,78.8,150.5z
		 M78.8,141.4c-2.1,0-3.7,1.7-3.7,3.7s1.7,3.7,3.7,3.7c2.1,0,3.7-1.7,3.7-3.7S80.8,141.4,78.8,141.4z"/>
</g>
<path class="st2" d="M53.8,102.2c-6.8,0-12.3,5.5-12.3,12.3c0,6.8,5.5,12.3,12.3,12.3c6.8,0,12.3-5.5,12.3-12.3H53.8V102.2z"/>
<path class="st3" d="M62.5,105.8l-8.7,8.7h12.3l0,0C66.1,111.1,64.8,108.1,62.5,105.8z"/>
<path class="st4" d="M53.8,102.2v12.3l8.7-8.7C60.3,103.6,57.2,102.2,53.8,102.2z"/>
<path class="st5" d="M62.5,123.3l-8.7-8.7h12.3l0,0C66.1,117.9,64.8,121,62.5,123.3z"/>
<path class="st6" d="M53.8,126.9v-12.3l8.7,8.7C60.3,125.5,57.2,126.9,53.8,126.9z"/>
<g>
	<rect x="73.2" y="108.4" class="st3" width="41.9" height="1.7"/>
	<rect x="73.2" y="113.7" class="st3" width="41.9" height="1.7"/>
	<rect x="73.2" y="119" class="st3" width="17" height="1.7"/>
</g>
<path class="st7" d="M53.8,70.7c-6.8,0-12.3,5.5-12.3,12.3c0,6.8,5.5,12.3,12.3,12.3c6.8,0,12.3-5.5,12.3-12.3H53.8V70.7z"/>
<path class="st8" d="M62.5,74.3L53.8,83h12.3l0,0C66.1,79.6,64.8,76.6,62.5,74.3z"/>
<path class="st4" d="M53.8,70.7V83l8.7-8.7C60.3,72.1,57.2,70.7,53.8,70.7z"/>
<path class="st3" d="M62.5,91.7L53.8,83h12.3l0,0C66.1,86.4,64.8,89.5,62.5,91.7z"/>
<path class="st5" d="M53.8,95.4V83l8.7,8.7C60.3,94,57.2,95.4,53.8,95.4z"/>
<g>
	<rect x="73.2" y="76.9" class="st3" width="41.9" height="1.7"/>
	<rect x="73.2" y="82.2" class="st3" width="41.9" height="1.7"/>
	<rect x="73.2" y="87.5" class="st3" width="17" height="1.7"/>
</g>
<polygon class="st2" points="87.1,58.3 67.3,38.6 48.8,57.1 46.3,54.6 67.3,33.8 87,53.4 105,35 107.5,37.4 "/>
<circle class="st8" cx="47.6" cy="55.8" r="6.9"/>
<circle cx="47.6" cy="55.8" r="3"/>
<circle class="st8" cx="87.1" cy="55.8" r="6.9"/>
<circle cx="87.1" cy="55.8" r="3"/>
<circle class="st8" cx="67.3" cy="36.2" r="9.6"/>
<circle cx="67.3" cy="36.2" r="4.2"/>
<circle class="st8" cx="106.2" cy="36.2" r="9.6"/>
<circle cx="106.2" cy="36.2" r="4.2"/>
</svg>
