<?xml version="1.0" encoding="utf-8"?>
<!-- Generator: Adobe Illustrator 24.0.1, SVG Export Plug-In . SVG Version: 6.00 Build 0)  -->
<svg version="1.1" id="Layer_1" xmlns="http://www.w3.org/2000/svg" xmlns:xlink="http://www.w3.org/1999/xlink" x="0px" y="0px"
	 viewBox="0 0 157 157" style="enable-background:new 0 0 157 157;" xml:space="preserve">
<style type="text/css">
	.st0{opacity:0.25;enable-background:new    ;}
	.st1{fill:#FFFFFF;}
	.st2{fill:#EAEAEA;}
	.st3{fill:#CCCCCC;}
	.st4{fill:#999999;}
	.st5{fill:#E9EDF1;}
	.st6{fill:#F91E1E;}
	.st7{opacity:0.2;}
	.st8{opacity:0.25;}
</style>
<g>
	<path d="M14.6,19.8c-4.4,0-8.1,3.6-8.1,8.1v7.1H150v-7.1c0-4.4-3.6-8.1-8.1-8.1H14.6z"/>
	<g class="st0">
		<path class="st1" d="M14.6,19.8c-4.4,0-8.1,3.6-8.1,8.1v7.1H39l8.8-15.2H14.6z"/>
	</g>
	<rect x="8.8" y="37.2" class="st1" width="139" height="98.6"/>
	<path class="st2" d="M145.5,39.5v94.2H11V39.5H145.5 M150,35H6.5v103.1H150V35L150,35z"/>
	<path class="st3" d="M143.3,41.7v89.7h-130V41.7H143.3 M144.4,40.6H12.2v91.9h132.2V40.6L144.4,40.6z"/>
	<g>
		<circle class="st4" cx="17.9" cy="27.4" r="2.3"/>
		<circle class="st4" cx="24.8" cy="27.4" r="2.3"/>
	</g>
	<circle class="st5" cx="31.6" cy="27.4" r="2.3"/>
	<path class="st1" d="M126.5,31.4H54.4c-2.2,0-4-1.8-4-4l0,0c0-2.2,1.8-4,4-4h72.1c2.2,0,4,1.8,4,4l0,0
		C130.5,29.6,128.7,31.4,126.5,31.4z"/>
	<path d="M57.1,25.4l0.5,2.1c0.1,0.4,0.2,0.9,0.3,1.3h0c0.1-0.4,0.2-0.9,0.3-1.3l0.7-2.1h0.6l0.6,2.1c0.1,0.5,0.3,1,0.3,1.3h0
		c0.1-0.4,0.2-0.9,0.3-1.3l0.6-2.1h0.8L61,29.6h-0.7l-0.6-2c-0.1-0.4-0.3-0.9-0.3-1.4l0,0c-0.1,0.5-0.2,1-0.3,1.4l-0.7,2h-0.7
		l-1.3-4.2L57.1,25.4L57.1,25.4L57.1,25.4z"/>
	<path d="M63.6,25.4l0.5,2.1c0.1,0.4,0.2,0.9,0.3,1.3h0c0.1-0.4,0.2-0.9,0.3-1.3l0.7-2.1h0.6l0.6,2.1c0.1,0.5,0.3,1,0.3,1.3h0
		c0.1-0.4,0.2-0.9,0.3-1.3l0.6-2.1h0.8l-1.3,4.2h-0.7l-0.6-2.1c-0.1-0.4-0.3-0.9-0.3-1.4l0,0c-0.1,0.5-0.2,1-0.3,1.4l-0.7,2H64
		l-1.3-4.2L63.6,25.4L63.6,25.4L63.6,25.4z"/>
	<path d="M70,25.4l0.5,2.1c0.1,0.4,0.2,0.9,0.3,1.3h0c0.1-0.4,0.2-0.9,0.3-1.3l0.7-2.1h0.6l0.6,2.1c0.1,0.5,0.3,1,0.3,1.3h0
		c0.1-0.4,0.2-0.9,0.3-1.3l0.6-2.1h0.8l-1.3,4.2h-0.7l-0.6-2c-0.1-0.4-0.3-0.9-0.3-1.4l0,0c-0.1,0.5-0.2,1-0.3,1.4l-0.7,2h-0.7
		l-1.3-4.2L70,25.4L70,25.4L70,25.4z"/>
	<path d="M75.5,29.1c0-0.3,0.2-0.5,0.5-0.5c0.3,0,0.5,0.2,0.5,0.5c0,0.3-0.2,0.5-0.5,0.5C75.7,29.6,75.5,29.4,75.5,29.1z"/>
	<g>
		<rect x="135.8" y="27" class="st1" width="6.5" height="1.1"/>
		<polygon class="st1" points="139.5,30.9 138.7,30 141.2,27.5 138.7,24.9 139.5,24.2 142.9,27.5 		"/>
	</g>
	<polygon class="st4" points="127,26.1 124.8,28.9 122.7,26.1 	"/>
	<path class="st6" d="M78.3,47.2C66.2,59.9,46,57.1,46,57.1s0,14.1,0,34.5S78.3,126,78.3,126s32.2-14.1,32.2-34.5s0-34.5,0-34.5
		S90.4,59.9,78.3,47.2z"/>
	<g class="st7">
		<path d="M78.3,58.5c-8.6,9.1-22.9,7-22.9,7s0,10.1,0,24.5s22.9,24.5,22.9,24.5s22.9-10.1,22.9-24.5s0-24.5,0-24.5
			S86.9,67.6,78.3,58.5z"/>
	</g>
	<g class="st8">
		<path class="st1" d="M78.3,47.2C66.2,59.9,46,57.1,46,57.1V83l64.4-20.3v-5.6C110.5,57.1,90.4,59.9,78.3,47.2z"/>
	</g>
	<path class="st1" d="M86.8,84.8h-2.8v-10c0-3.2-2.5-5.8-5.7-5.9c-3.2,0-5.8,2.5-5.9,5.7c0,0,0,0.1,0,0.1v10h-2.8v-10
		c0-4.7,3.8-8.6,8.5-8.6c4.7,0,8.6,3.8,8.6,8.5c0,0,0,0.1,0,0.1L86.8,84.8L86.8,84.8z"/>
	<g class="st8">
		<rect x="84.1" y="81.9" width="2.8" height="1.1"/>
	</g>
	<g class="st8">
		<rect x="69.7" y="81.9" width="2.8" height="1.1"/>
	</g>
	<rect x="67.1" y="83" width="22.3" height="14.1"/>
	<rect x="65.9" y="97.2" width="24.9" height="4.6"/>
	<g>
		<circle class="st1" cx="78.3" cy="90.4" r="2.8"/>
		<rect x="77.1" y="91.9" class="st1" width="2.4" height="5.1"/>
	</g>
</g>
</svg>
