<?xml version="1.0" encoding="utf-8"?>
<!-- Generator: Adobe Illustrator 24.0.1, SVG Export Plug-In . SVG Version: 6.00 Build 0)  -->
<svg version="1.1" id="Layer_1" xmlns="http://www.w3.org/2000/svg" xmlns:xlink="http://www.w3.org/1999/xlink" x="0px" y="0px"
	 viewBox="0 0 157 157" style="enable-background:new 0 0 157 157;" xml:space="preserve">
<style type="text/css">
	.st0{fill:#FFFFFF;}
	.st1{fill:#2D2D2D;}
	.st2{fill:#E0E0E0;}
	.st3{fill:#DB2B42;}
</style>
<rect id="SVGCleanerId_0" x="24.5" y="7.3" class="st0" width="107.5" height="143.3"/>
<rect id="SVGCleanerId_1" x="36.4" y="110.9" class="st1" width="37.2" height="3"/>
<rect id="SVGCleanerId_2" x="36.4" y="122.8" class="st2" width="37.2" height="3"/>
<rect id="SVGCleanerId_3" x="36.4" y="128.8" class="st2" width="37.2" height="3"/>
<rect id="SVGCleanerId_4" x="36.4" y="134.8" class="st2" width="37.2" height="3"/>
<path class="st3" d="M116.3,102H40.2c-2.5,0-4.5-2-4.5-4.5V42.3c0-2.5,2-4.5,4.5-4.5h76.2c2.5,0,4.5,2,4.5,4.5v55.2
	C120.8,100,118.8,102,116.3,102z"/>
<g>
	<rect id="SVGCleanerId_0_1_" x="24.5" y="7.3" class="st0" width="107.5" height="143.3"/>
</g>
<g>
	<rect id="SVGCleanerId_1_1_" x="36.4" y="110.9" class="st1" width="37.2" height="3"/>
</g>
<g>
	<rect id="SVGCleanerId_2_1_" x="36.4" y="122.8" class="st2" width="37.2" height="3"/>
</g>
<g>
	<rect id="SVGCleanerId_3_1_" x="36.4" y="128.8" class="st2" width="37.2" height="3"/>
</g>
<g>
	<rect id="SVGCleanerId_4_1_" x="36.4" y="134.8" class="st2" width="37.2" height="3"/>
</g>
<path class="st1" d="M116.3,102H40.2c-2.5,0-4.5-2-4.5-4.5V42.3c0-2.5,2-4.5,4.5-4.5h76.2c2.5,0,4.5,2,4.5,4.5v55.2
	C120.8,100,118.8,102,116.3,102z"/>
<g>
	<rect x="83.6" y="110.6" class="st2" width="37.2" height="7.2"/>
	<rect x="83.6" y="120.7" class="st2" width="37.2" height="7.2"/>
	<rect x="83.6" y="130.9" class="st2" width="37.2" height="7.2"/>
</g>
<g>
	<rect x="83.6" y="130.9" class="st3" width="7.7" height="7.2"/>
	<rect x="83.6" y="120.7" class="st3" width="7.7" height="7.2"/>
	<rect x="83.6" y="110.6" class="st3" width="7.7" height="7.2"/>
</g>
<g>
	<path class="st2" d="M120,19.5V27H68.5v-7.5H120 M120.8,18.8H67.7v9h53.1V18.8L120.8,18.8z"/>
	<rect x="110.8" y="18.8" class="st2" width="10" height="9"/>
</g>
<path class="st3" d="M59.8,27.7H46.7c-0.5,0-0.9-0.4-0.9-0.9v-7.2c0-0.5,0.4-0.9,0.9-0.9h13.1c0.5,0,0.9,0.4,0.9,0.9v7.2
	C60.7,27.4,60.3,27.7,59.8,27.7z"/>
<g>
	<path class="st0" d="M48.5,22.3h-1.1v-0.6h2.8v0.6h-1.1v3.2h-0.7L48.5,22.3L48.5,22.3z"/>
	<path class="st0" d="M52.8,24.6c0,0.3,0,0.6,0,0.8h-0.6l0-0.4l0,0c-0.1,0.2-0.4,0.5-0.9,0.5c-0.5,0-1-0.3-1-1.2v-1.6h0.7v1.4
		c0,0.5,0.2,0.7,0.5,0.7c0.3,0,0.5-0.2,0.5-0.4c0-0.1,0-0.1,0-0.2v-1.6h0.7V24.6L52.8,24.6z"/>
	<path class="st0" d="M53.5,25.4c0-0.2,0-0.5,0-0.8v-3.2h0.7v1.6l0,0c0.2-0.3,0.5-0.4,0.9-0.4c0.6,0,1.1,0.5,1.1,1.4
		c0,1-0.6,1.4-1.2,1.4c-0.3,0-0.6-0.2-0.8-0.5l0,0l0,0.4L53.5,25.4L53.5,25.4z M54.2,24.3c0,0.1,0,0.1,0,0.2
		c0.1,0.3,0.3,0.5,0.6,0.5c0.4,0,0.7-0.3,0.7-0.9c0-0.5-0.2-0.9-0.7-0.9c-0.3,0-0.5,0.2-0.6,0.5c0,0,0,0.1,0,0.2L54.2,24.3
		L54.2,24.3z"/>
	<path class="st0" d="M57.3,24.3c0,0.5,0.4,0.7,0.8,0.7c0.3,0,0.5,0,0.8-0.1l0.1,0.5c-0.2,0.1-0.6,0.2-1,0.2c-0.9,0-1.4-0.5-1.4-1.4
		c0-0.8,0.5-1.4,1.3-1.4c0.9,0,1.1,0.7,1.1,1.3c0,0.1,0,0.2,0,0.3C59.1,24.3,57.3,24.3,57.3,24.3z M58.4,23.8c0-0.2-0.1-0.6-0.6-0.6
		c-0.4,0-0.6,0.4-0.6,0.6H58.4z"/>
</g>
<g>
	<path class="st1" d="M36.9,25.4v-1.6l-1.2-2.2h0.8l0.5,1c0.1,0.3,0.2,0.5,0.3,0.7l0,0c0.1-0.2,0.2-0.5,0.3-0.7l0.5-1h0.8l-1.2,2.2
		v1.6H36.9z"/>
	<path class="st1" d="M41.2,24c0,1-0.7,1.4-1.4,1.4c-0.8,0-1.3-0.5-1.3-1.4c0-0.9,0.6-1.4,1.4-1.4C40.7,22.7,41.2,23.2,41.2,24z
		 M39.2,24.1c0,0.5,0.3,0.9,0.7,0.9c0.4,0,0.6-0.4,0.6-0.9c0-0.4-0.2-0.9-0.6-0.9C39.4,23.2,39.2,23.6,39.2,24.1z"/>
	<path class="st1" d="M44.2,24.6c0,0.3,0,0.6,0,0.8h-0.6l0-0.4l0,0c-0.1,0.2-0.4,0.5-0.9,0.5s-1-0.3-1-1.2v-1.6h0.7v1.4
		c0,0.5,0.2,0.7,0.5,0.7c0.3,0,0.5-0.2,0.5-0.4c0-0.1,0-0.1,0-0.2v-1.6h0.7V24.6z"/>
	<path class="st1" d="M115.6,24.8c-1.2,0-2.1-1-2.1-2.1c0-1.2,1-2.1,2.1-2.1c1.2,0,2.1,1,2.1,2.1C117.7,23.8,116.8,24.8,115.6,24.8z
		 M115.6,21c-0.9,0-1.6,0.8-1.6,1.6s0.8,1.6,1.6,1.6s1.6-0.8,1.6-1.6S116.5,21,115.6,21z"/>
	<rect x="117.3" y="23.9" transform="matrix(0.7967 -0.6044 0.6044 0.7967 8.7713 76.1044)" class="st1" width="0.5" height="2.2"/>
	<path class="st1" d="M72.2,24.5c0.2,0.1,0.5,0.2,0.7,0.2c0.4,0,0.6-0.2,0.6-0.5s-0.2-0.5-0.6-0.6c-0.5-0.2-0.8-0.5-0.8-0.9
		c0-0.5,0.4-0.8,1-0.8c0.3,0,0.6,0.1,0.7,0.2l-0.1,0.3c-0.1-0.1-0.3-0.2-0.6-0.2c-0.4,0-0.6,0.3-0.6,0.5c0,0.3,0.2,0.5,0.6,0.6
		c0.5,0.2,0.8,0.5,0.8,0.9c0,0.5-0.4,0.9-1.1,0.9c-0.3,0-0.6-0.1-0.8-0.2L72.2,24.5z"/>
	<path class="st1" d="M74.8,24c0,0.6,0.4,0.8,0.8,0.8c0.3,0,0.5,0,0.6-0.1l0.1,0.3c-0.2,0.1-0.4,0.2-0.8,0.2c-0.7,0-1.1-0.5-1.1-1.1
		c0-0.7,0.4-1.2,1.1-1.2c0.8,0,1,0.6,1,1.1c0,0.1,0,0.2,0,0.2L74.8,24L74.8,24L74.8,24z M76,23.7c0-0.3-0.1-0.7-0.6-0.7
		c-0.4,0-0.6,0.4-0.6,0.7H76z"/>
	<path class="st1" d="M78.2,25l0-0.3l0,0c-0.1,0.2-0.4,0.3-0.7,0.3c-0.5,0-0.7-0.3-0.7-0.6c0-0.5,0.5-0.8,1.4-0.8v0
		c0-0.2,0-0.5-0.5-0.5c-0.2,0-0.4,0.1-0.6,0.2L77,22.9c0.2-0.1,0.5-0.2,0.8-0.2c0.7,0,0.9,0.5,0.9,0.9v0.8c0,0.2,0,0.4,0,0.5
		L78.2,25L78.2,25L78.2,25z M78.1,23.9c-0.5,0-1,0.1-1,0.5c0,0.3,0.2,0.4,0.4,0.4c0.3,0,0.5-0.2,0.5-0.4c0,0,0-0.1,0-0.1V23.9z"/>
	<path class="st1" d="M79.2,23.5c0-0.3,0-0.5,0-0.7h0.3v0.5l0,0c0.1-0.3,0.3-0.5,0.6-0.5c0,0,0.1,0,0.1,0v0.4c0,0-0.1,0-0.2,0
		c-0.3,0-0.5,0.2-0.6,0.5c0,0,0,0.1,0,0.2V25h-0.4L79.2,23.5L79.2,23.5z"/>
	<path class="st1" d="M82.3,25c-0.1,0.1-0.3,0.1-0.6,0.1c-0.7,0-1.1-0.5-1.1-1.1s0.5-1.2,1.2-1.2c0.2,0,0.5,0.1,0.6,0.1l-0.1,0.3
		C82.1,23,82,23,81.8,23c-0.5,0-0.8,0.4-0.8,0.8c0,0.5,0.3,0.8,0.8,0.8c0.2,0,0.4-0.1,0.5-0.1L82.3,25z"/>
	<path class="st1" d="M82.8,21.7h0.4v1.4l0,0c0.1-0.1,0.2-0.2,0.3-0.3c0.1-0.1,0.3-0.1,0.4-0.1c0.3,0,0.8,0.2,0.8,1V25h-0.4v-1.3
		c0-0.4-0.2-0.7-0.5-0.7c-0.3,0-0.5,0.2-0.6,0.4c0,0.1,0,0.1,0,0.2V25h-0.4L82.8,21.7L82.8,21.7L82.8,21.7z"/>
</g>
<g>
	<path class="st0" d="M51.3,78.8l0.7-5.3h-2.2v-1.6h2.5l0.5-4h-2.4v-1.6H53l0.7-5.2h1.6l-0.7,5.2h2.8l0.7-5.2h1.6l-0.7,5.2h2.2v1.6
		h-2.5l-0.5,4h2.4v1.6h-2.6l-0.7,5.3h-1.6l0.7-5.3h-2.8L53,78.8H51.3L51.3,78.8z M56.8,71.9l0.5-4h-2.8l-0.5,4H56.8z"/>
	<path class="st0" d="M64.4,60.4h2.4v16.4h7.9v2H64.4V60.4L64.4,60.4L64.4,60.4z"/>
	<path class="st0" d="M79.9,61.9c0,0.8-0.6,1.5-1.5,1.5c-0.8,0-1.4-0.6-1.4-1.5c0-0.8,0.6-1.5,1.5-1.5C79.3,60.4,79.9,61,79.9,61.9z
		 M77.2,78.8V65.6h2.4v13.2H77.2z"/>
	<path class="st0" d="M84.5,65.6l2.6,7.4c0.4,1.2,0.8,2.3,1.1,3.4h0.1c0.3-1.1,0.7-2.2,1.1-3.4l2.6-7.4h2.5l-5.2,13.2h-2.3l-5-13.2
		H84.5z"/>
	<path class="st0" d="M97.8,72.7c0,3.2,2.1,4.6,4.5,4.6c1.7,0,2.7-0.3,3.7-0.7l0.4,1.7c-0.8,0.4-2.3,0.8-4.4,0.8
		c-4.1,0-6.5-2.7-6.5-6.7c0-4,2.4-7.1,6.2-7.1c4.3,0,5.5,3.8,5.5,6.2c0,0.5-0.1,0.9-0.1,1.1L97.8,72.7L97.8,72.7z M104.8,70.9
		c0-1.5-0.6-3.9-3.3-3.9c-2.4,0-3.5,2.2-3.7,3.9H104.8z"/>
</g>
</svg>
