<?xml version="1.0" encoding="utf-8"?>
<!-- Generator: Adobe Illustrator 24.0.1, SVG Export Plug-In . SVG Version: 6.00 Build 0)  -->
<svg version="1.1" id="Layer_1" xmlns="http://www.w3.org/2000/svg" xmlns:xlink="http://www.w3.org/1999/xlink" x="0px" y="0px"
	 viewBox="0 0 157 157" style="enable-background:new 0 0 157 157;" xml:space="preserve">
<style type="text/css">
	.st0{fill:#FFFFFF;}
	.st1{fill:#2D2D2D;}
	.st2{fill:#CCCCCC;}
	.st3{fill:#92CF34;}
	.st4{fill:#23282C;}
</style>
<path class="st0" d="M107.6,152.3H48.9c-6.2,0-11.4-5.1-11.4-11.4V17c0-6.2,5.1-11.4,11.4-11.4h58.8c6.2,0,11.4,5.1,11.4,11.4v123.9
	C119,147.2,113.9,152.3,107.6,152.3z"/>
<rect x="42.9" y="17.2" class="st1" width="70.7" height="115.6"/>
<g>
	<path class="st2" d="M88.9,12.6H74.4c-0.7,0-1.2-0.5-1.2-1.2l0,0c0-0.7,0.5-1.2,1.2-1.2h14.5c0.7,0,1.2,0.5,1.2,1.2l0,0
		C90,12.1,89.5,12.6,88.9,12.6z"/>
	<circle class="st2" cx="67.7" cy="11.5" r="1.2"/>
	<path class="st2" d="M78.3,148.3c-3.2,0-5.8-2.6-5.8-5.8s2.6-5.8,5.8-5.8c3.2,0,5.8,2.6,5.8,5.8S81.4,148.3,78.3,148.3z
		 M78.3,138.3c-2.3,0-4.3,1.9-4.3,4.3c0,2.4,1.9,4.3,4.3,4.3s4.3-1.9,4.3-4.3C82.6,140.2,80.6,138.3,78.3,138.3z"/>
</g>
<g>
	<rect x="42.9" y="58.2" class="st3" width="70.7" height="74.6"/>
	<rect x="49.2" y="89.9" class="st3" width="58.1" height="1.7"/>
</g>
<g>
	<circle class="st0" cx="97.7" cy="33.1" r="3.7"/>
	<path class="st0" d="M104.2,45.1c0,0,0,0.2,0-3.3c0-3.5-3.8-3.5-3.8-3.5h-5.3c0,0-3.8,0-3.8,3.5c0,3.5,0,3.3,0,3.3H104.2z"/>
	<rect x="49.2" y="65.6" class="st0" width="58.1" height="12.6"/>
	<rect x="49.2" y="83.6" class="st0" width="58.1" height="12.6"/>
</g>
<g>
	<path class="st1" d="M55.7,69.9v2.2c0,0.8,0.4,1.2,0.9,1.2c0.5,0,0.9-0.4,0.9-1.2v-2.2H58v2.2c0,1.2-0.6,1.6-1.4,1.6
		c-0.8,0-1.4-0.4-1.4-1.6v-2.2H55.7z"/>
	<path class="st1" d="M58.7,73.2c0.1,0.1,0.4,0.2,0.7,0.2c0.4,0,0.5-0.2,0.5-0.4s-0.1-0.4-0.5-0.5c-0.5-0.2-0.7-0.4-0.7-0.8
		c0-0.4,0.4-0.8,0.9-0.8c0.3,0,0.5,0.1,0.7,0.2l-0.1,0.4c-0.1-0.1-0.3-0.1-0.5-0.1c-0.3,0-0.4,0.2-0.4,0.4c0,0.2,0.1,0.3,0.5,0.4
		c0.5,0.2,0.7,0.4,0.7,0.8c0,0.5-0.4,0.8-1,0.8c-0.3,0-0.6-0.1-0.8-0.2L58.7,73.2z"/>
	<path class="st1" d="M61.3,72.4c0,0.7,0.4,1,0.9,1c0.4,0,0.5-0.1,0.7-0.1l0.1,0.4c-0.2,0.1-0.5,0.2-0.9,0.2c-0.8,0-1.3-0.5-1.3-1.4
		s0.5-1.5,1.3-1.5c0.9,0,1.1,0.8,1.1,1.3c0,0.1,0,0.2,0,0.2L61.3,72.4L61.3,72.4z M62.7,72.1c0-0.3-0.1-0.8-0.7-0.8
		c-0.5,0-0.7,0.4-0.8,0.8H62.7z"/>
	<path class="st1" d="M63.8,71.8c0-0.3,0-0.6,0-0.8h0.4v0.5h0c0.1-0.4,0.4-0.6,0.7-0.6c0.1,0,0.1,0,0.1,0v0.5c0,0-0.1,0-0.2,0
		c-0.3,0-0.6,0.3-0.7,0.6c0,0.1,0,0.1,0,0.2v1.4h-0.5L63.8,71.8L63.8,71.8z"/>
	<path class="st1" d="M66.9,73.7v-3.8h0.5l1.2,1.9c0.3,0.4,0.5,0.8,0.7,1.2l0,0c0-0.5-0.1-1-0.1-1.5v-1.6h0.4v3.8h-0.5L68,71.8
		c-0.3-0.4-0.5-0.8-0.7-1.2l0,0c0,0.5,0,0.9,0,1.5v1.6H66.9L66.9,73.7z"/>
	<path class="st1" d="M72,73.7l0-0.3l0,0c-0.1,0.2-0.4,0.4-0.8,0.4c-0.5,0-0.8-0.4-0.8-0.8c0-0.7,0.6-1,1.6-1v-0.1
		c0-0.2-0.1-0.6-0.6-0.6c-0.3,0-0.5,0.1-0.7,0.2l-0.1-0.3c0.2-0.1,0.5-0.3,0.9-0.3c0.8,0,1,0.5,1,1.1v1c0,0.2,0,0.5,0,0.7L72,73.7
		L72,73.7z M72,72.3c-0.5,0-1.1,0.1-1.1,0.6c0,0.3,0.2,0.5,0.5,0.5c0.4,0,0.6-0.2,0.7-0.4c0,0,0-0.1,0-0.1L72,72.3L72,72.3z"/>
	<path class="st1" d="M73.2,71.7c0-0.3,0-0.5,0-0.7h0.4l0,0.4l0,0c0.1-0.3,0.4-0.5,0.8-0.5c0.4,0,0.7,0.2,0.8,0.5l0,0
		c0.1-0.1,0.2-0.3,0.3-0.4c0.1-0.1,0.3-0.2,0.6-0.2c0.4,0,0.9,0.2,0.9,1.2v1.6h-0.5v-1.5c0-0.5-0.2-0.8-0.6-0.8
		c-0.3,0-0.5,0.2-0.6,0.4c0,0.1,0,0.1,0,0.3v1.7h-0.5v-1.6c0-0.4-0.2-0.7-0.5-0.7c-0.3,0-0.5,0.3-0.6,0.5c0,0.1,0,0.1,0,0.3v1.6
		h-0.5L73.2,71.7L73.2,71.7z"/>
	<path class="st1" d="M78.2,72.4c0,0.7,0.4,1,0.9,1c0.4,0,0.5-0.1,0.7-0.1l0.1,0.4c-0.2,0.1-0.5,0.2-0.9,0.2c-0.8,0-1.3-0.5-1.3-1.4
		s0.5-1.5,1.3-1.5c0.9,0,1.1,0.8,1.1,1.3c0,0.1,0,0.2,0,0.2L78.2,72.4L78.2,72.4z M79.6,72.1c0-0.3-0.1-0.8-0.7-0.8
		c-0.5,0-0.7,0.4-0.8,0.8H79.6z"/>
</g>
<g>
	<path class="st0" d="M52.4,32.3h1.3v9.3h4.4v1.1h-5.8L52.4,32.3L52.4,32.3z"/>
	<path class="st0" d="M66.1,38.9c0,2.7-1.9,4-3.7,4c-2,0-3.6-1.5-3.6-3.8c0-2.5,1.6-4,3.7-4C64.7,35.1,66.1,36.6,66.1,38.9z
		 M60.2,39c0,1.6,1,2.9,2.3,2.9c1.3,0,2.3-1.2,2.3-2.9c0-1.2-0.6-2.9-2.2-2.9C60.9,36.1,60.2,37.6,60.2,39z"/>
	<path class="st0" d="M74.2,35.2c0,0.5-0.1,1.1-0.1,2.1v4.3c0,1.7-0.3,2.7-1.1,3.4c-0.7,0.7-1.8,0.9-2.7,0.9c-0.9,0-1.9-0.2-2.5-0.6
		l0.3-1c0.5,0.3,1.2,0.6,2.2,0.6c1.4,0,2.4-0.7,2.4-2.6v-0.8h0c-0.4,0.7-1.2,1.2-2.4,1.2c-1.8,0-3.2-1.6-3.2-3.6c0-2.5,1.6-4,3.4-4
		c1.3,0,2,0.7,2.3,1.3h0l0.1-1.1L74.2,35.2L74.2,35.2L74.2,35.2z M72.9,38.1c0-0.2,0-0.4-0.1-0.6c-0.3-0.8-0.9-1.4-1.9-1.4
		c-1.3,0-2.2,1.1-2.2,2.8c0,1.5,0.7,2.7,2.2,2.7c0.8,0,1.6-0.5,1.9-1.4c0.1-0.2,0.1-0.5,0.1-0.7L72.9,38.1L72.9,38.1z"/>
	<path class="st0" d="M77.8,33.1c0,0.5-0.3,0.8-0.9,0.8c-0.5,0-0.8-0.4-0.8-0.8c0-0.5,0.4-0.8,0.8-0.8
		C77.5,32.3,77.8,32.7,77.8,33.1z M76.3,42.7v-7.4h1.4v7.4H76.3L76.3,42.7z"/>
	<path class="st0" d="M79.9,37.2c0-0.8,0-1.4-0.1-2h1.2l0.1,1.2h0c0.4-0.7,1.2-1.4,2.5-1.4c1,0,2.6,0.6,2.6,3.2v4.4h-1.4v-4.3
		c0-1.2-0.4-2.2-1.7-2.2c-0.9,0-1.6,0.6-1.8,1.4c-0.1,0.2-0.1,0.4-0.1,0.6v4.5h-1.4L79.9,37.2L79.9,37.2z"/>
</g>
<rect x="63.9" y="108.2" class="st4" width="29.3" height="12.6"/>
<path class="st0" d="M77.5,117.2c-0.4,0.1-1.1,0.4-1.9,0.4c-1,0-1.8-0.3-2.4-0.8c-0.5-0.5-0.9-1.4-0.9-2.4c0-1.9,1.3-3.3,3.4-3.3
	c0.7,0,1.3,0.1,1.6,0.3l-0.2,0.7c-0.3-0.1-0.8-0.3-1.4-0.3c-1.5,0-2.6,1-2.6,2.6c0,1.6,1,2.6,2.5,2.6c0.5,0,0.9-0.1,1.1-0.2v-1.9
	h-1.3v-0.7h2.1L77.5,117.2L77.5,117.2z"/>
<path class="st0" d="M82.9,115.1c0,1.7-1.2,2.4-2.3,2.4c-1.2,0-2.2-0.9-2.2-2.3c0-1.5,1-2.4,2.3-2.4C82,112.8,82.9,113.7,82.9,115.1
	z M79.3,115.2c0,1,0.6,1.8,1.4,1.8s1.4-0.7,1.4-1.8c0-0.8-0.4-1.8-1.4-1.8C79.7,113.4,79.3,114.3,79.3,115.2z"/>
<path class="st0" d="M83.8,117c0-0.3,0.2-0.6,0.5-0.6s0.5,0.3,0.5,0.6c0,0.3-0.2,0.6-0.5,0.6C84,117.5,83.8,117.3,83.8,117z
	 M84,115.6l-0.1-4.5h0.9l-0.1,4.5H84z"/>
<circle class="st1" cx="56.9" cy="89.9" r="1.5"/>
<circle class="st1" cx="62.3" cy="89.9" r="1.5"/>
<circle class="st1" cx="67.7" cy="89.9" r="1.5"/>
<circle class="st1" cx="73" cy="89.9" r="1.5"/>
<circle class="st1" cx="78.5" cy="89.9" r="1.5"/>
</svg>
